<?xml version="1.0" encoding="UTF-8"?>
<svg version="1.1" xmlns="http://www.w3.org/2000/svg" width="150" height="150">
<path d="M0 0 C1.62856934 0.00427505 1.62856934 0.00427505 3.29003906 0.00863647 C5.13710449 -0.00059341 5.13710449 -0.00059341 7.02148438 -0.01000977 C8.36621851 0.0037867 9.71094526 0.01832071 11.05566406 0.03353882 C12.43424304 0.0359235 13.81282531 0.03682851 15.19140625 0.03631592 C18.07995972 0.03944365 20.96801674 0.05600546 23.85644531 0.08285522 C27.55887211 0.11683551 31.26075341 0.1244838 34.96331787 0.12296486 C37.80978604 0.12350875 40.65613497 0.13447888 43.50256348 0.14896774 C44.86770729 0.15533172 46.23286462 0.15927371 47.59802246 0.16075516 C49.5058274 0.16509221 51.41358161 0.18418104 53.32128906 0.20394897 C54.40700195 0.21157257 55.49271484 0.21919617 56.61132812 0.22705078 C59.30566406 0.49447632 59.30566406 0.49447632 62.30566406 2.49447632 C62.64624023 4.46566772 62.64624023 4.46566772 62.59863281 6.84603882 C62.58896484 7.69682007 62.57929687 8.54760132 62.56933594 9.42416382 C62.54419922 10.31361694 62.5190625 11.20307007 62.49316406 12.11947632 C62.47286133 13.46525757 62.47286133 13.46525757 62.45214844 14.83822632 C62.41673331 17.05757421 62.36734868 19.2757282 62.30566406 21.49447632 C62.96566406 21.49447632 63.62566406 21.49447632 64.30566406 21.49447632 C66.78926848 25.21988294 66.53725076 27.12510605 66.50097656 31.56869507 C66.49814667 32.25252762 66.49531677 32.93636017 66.49240112 33.64091492 C66.4812209 35.82144797 66.45612097 38.00156777 66.43066406 40.18197632 C66.42063144 41.66178809 66.41150608 43.14160631 66.40332031 44.62142944 C66.38128887 48.24591232 66.34677408 51.87015398 66.30566406 55.49447632 C62.67566406 55.49447632 59.04566406 55.49447632 55.30566406 55.49447632 C55.30566406 53.51447632 55.30566406 51.53447632 55.30566406 49.49447632 C37.81566406 49.49447632 20.32566406 49.49447632 2.30566406 49.49447632 C2.30566406 51.47447632 2.30566406 53.45447632 2.30566406 55.49447632 C-1.32433594 55.49447632 -4.95433594 55.49447632 -8.69433594 55.49447632 C-8.74371294 50.97382204 -8.78004417 46.45332415 -8.80419922 41.9324646 C-8.81426711 40.39402533 -8.8279224 38.85560525 -8.84521484 37.31723022 C-8.8694291 35.10803499 -8.88081085 32.89909237 -8.88964844 30.68978882 C-8.89997101 30.00015045 -8.91029358 29.31051208 -8.92092896 28.59997559 C-8.92133072 26.89646725 -8.81624619 25.19361689 -8.69433594 23.49447632 C-8.03433594 22.83447632 -7.37433594 22.17447632 -6.69433594 21.49447632 C-6.40172689 17.91649737 -6.27901702 14.37851704 -6.21582031 10.79135132 C-6.18939453 10.04627319 -6.16296875 9.30119507 -6.13574219 8.53353882 C-6.1155603 7.51574341 -6.1155603 7.51574341 -6.0949707 6.47738647 C-5.32787191 2.68069155 -3.86377612 0.7090971 0 0 Z M-0.69433594 5.49447632 C-0.69433594 10.44447632 -0.69433594 15.39447632 -0.69433594 20.49447632 C0.62566406 20.49447632 1.94566406 20.49447632 3.30566406 20.49447632 C3.61503906 19.36010132 3.92441406 18.22572632 4.24316406 17.05697632 C5.30566406 13.49447632 5.30566406 13.49447632 6.30566406 12.49447632 C8.96389063 12.3678941 11.5845383 12.30927418 14.24316406 12.30697632 C15.35594727 12.28860718 15.35594727 12.28860718 16.49121094 12.26986694 C18.43080036 12.26459154 20.36990116 12.3725873 22.30566406 12.49447632 C24.87112347 15.05993572 24.84612493 16.97134299 25.30566406 20.49447632 C27.61566406 20.49447632 29.92566406 20.49447632 32.30566406 20.49447632 C32.49128906 18.79291382 32.49128906 18.79291382 32.68066406 17.05697632 C32.88691406 15.88135132 33.09316406 14.70572632 33.30566406 13.49447632 C36.33996083 11.97732793 39.48168073 12.35083716 42.80566406 12.36947632 C43.4953125 12.36560913 44.18496094 12.36174194 44.89550781 12.35775757 C50.05233114 12.36780986 50.05233114 12.36780986 52.30566406 13.49447632 C52.71295634 15.81604229 53.05005083 18.15135502 53.30566406 20.49447632 C54.95566406 20.49447632 56.60566406 20.49447632 58.30566406 20.49447632 C58.30566406 15.54447632 58.30566406 10.59447632 58.30566406 5.49447632 C38.83566406 5.49447632 19.36566406 5.49447632 -0.69433594 5.49447632 Z M9.30566406 15.49447632 C8.31566406 16.97947632 8.31566406 16.97947632 7.30566406 18.49447632 C9.11759412 20.73772468 9.11759412 20.73772468 11.68847656 20.68978882 C12.59339844 20.66658569 13.49832031 20.64338257 14.43066406 20.61947632 C15.34074219 20.60142944 16.25082031 20.58338257 17.18847656 20.56478882 C17.88714844 20.54158569 18.58582031 20.51838257 19.30566406 20.49447632 C19.8963642 18.54844358 19.8963642 18.54844358 20.30566406 16.49447632 C18.63882391 14.82763616 16.64923337 15.28374867 14.36816406 15.24447632 C13.47226562 15.21869507 12.57636719 15.19291382 11.65332031 15.16635132 C10.49123047 15.32877319 10.49123047 15.32877319 9.30566406 15.49447632 Z M37.30566406 15.49447632 C36.71496392 17.44050906 36.71496392 17.44050906 36.30566406 19.49447632 C37.36545339 20.78060307 37.36545339 20.78060307 39.80957031 20.59213257 C40.81890625 20.58053101 41.82824219 20.56892944 42.86816406 20.55697632 C43.88007812 20.54795288 44.89199219 20.53892944 45.93457031 20.52963257 C46.71703125 20.51803101 47.49949219 20.50642944 48.30566406 20.49447632 C48.8963642 18.54844358 48.8963642 18.54844358 49.30566406 16.49447632 C48.24587473 15.20834956 48.24587473 15.20834956 45.80175781 15.39682007 C44.79242188 15.40842163 43.78308594 15.42002319 42.74316406 15.43197632 C41.73125 15.44099976 40.71933594 15.45002319 39.67675781 15.45932007 C38.89429688 15.47092163 38.11183594 15.48252319 37.30566406 15.49447632 Z M-4.69433594 26.49447632 C-4.69433594 27.81447632 -4.69433594 29.13447632 -4.69433594 30.49447632 C17.41566406 30.49447632 39.52566406 30.49447632 62.30566406 30.49447632 C61.81066406 28.01947632 61.81066406 28.01947632 61.30566406 25.49447632 C58.59298839 24.13813848 56.45587077 24.35982372 53.41894531 24.34921265 C52.18426514 24.34283279 50.94958496 24.33645294 49.67749023 24.32987976 C48.32438191 24.32835132 46.97127306 24.32723723 45.61816406 24.32650757 C44.23575811 24.32329561 42.8533525 24.31993158 41.47094727 24.31642151 C38.57242036 24.31043014 35.67392328 24.30858167 32.77539062 24.30917358 C29.0560789 24.30927532 25.33695758 24.29561138 21.61769104 24.27840137 C18.76272701 24.26730011 15.90780933 24.26525378 13.05282593 24.26578331 C11.68125755 24.26460081 10.30968807 24.26016397 8.93814087 24.25245094 C7.02291305 24.24268737 5.10762958 24.2467839 3.19238281 24.2515564 C2.10143311 24.25013138 1.0104834 24.24870636 -0.11352539 24.24723816 C-2.8580482 24.23388652 -2.8580482 24.23388652 -4.69433594 26.49447632 Z M-4.69433594 35.49447632 C-4.69433594 35.82447632 -4.69433594 36.15447632 -4.69433594 36.49447632 C17.41566406 36.49447632 39.52566406 36.49447632 62.30566406 36.49447632 C62.30566406 36.16447632 62.30566406 35.83447632 62.30566406 35.49447632 C40.19566406 35.49447632 18.08566406 35.49447632 -4.69433594 35.49447632 Z M-4.69433594 40.49447632 C-4.69433594 41.81447632 -4.69433594 43.13447632 -4.69433594 44.49447632 C28.47066406 44.98947632 28.47066406 44.98947632 62.30566406 45.49447632 C62.30566406 43.84447632 62.30566406 42.19447632 62.30566406 40.49447632 C40.19566406 40.49447632 18.08566406 40.49447632 -4.69433594 40.49447632 Z M-4.69433594 49.49447632 C-4.69433594 50.48447632 -4.69433594 51.47447632 -4.69433594 52.49447632 C-4.03433594 52.49447632 -3.37433594 52.49447632 -2.69433594 52.49447632 C-2.69433594 51.50447632 -2.69433594 50.51447632 -2.69433594 49.49447632 C-3.35433594 49.49447632 -4.01433594 49.49447632 -4.69433594 49.49447632 Z M59.30566406 49.49447632 C59.30566406 50.48447632 59.30566406 51.47447632 59.30566406 52.49447632 C60.29566406 52.49447632 61.28566406 52.49447632 62.30566406 52.49447632 C62.30566406 51.50447632 62.30566406 50.51447632 62.30566406 49.49447632 C61.31566406 49.49447632 60.32566406 49.49447632 59.30566406 49.49447632 Z " fill="#CC3158" transform="translate(30.6943359375,72.50552368164063)"/>
<path d="M0 0 C24.75 0 49.5 0 75 0 C75 15.84 75 31.68 75 48 C72.06283054 49.46858473 69.45852756 49.12734295 66.17944336 49.12939453 C65.47850052 49.13114685 64.77755768 49.13289917 64.05537415 49.13470459 C61.73350566 49.13911366 59.41171304 49.13618875 57.08984375 49.1328125 C55.4808399 49.13348573 53.87183614 49.13445592 52.26283264 49.13571167 C48.88932325 49.1371873 45.51584031 49.13503812 42.14233398 49.13037109 C37.80867124 49.12466931 33.47507036 49.1279565 29.14140987 49.13394356 C25.81897003 49.13754891 22.49654497 49.13641079 19.17410469 49.13381577 C17.57563838 49.13314666 15.97717074 49.13397435 14.37870598 49.13629532 C12.14948825 49.13882191 9.92037222 49.1349814 7.69116211 49.12939453 C5.78493324 49.12820114 5.78493324 49.12820114 3.8401947 49.12698364 C1 49 1 49 0 48 C-0.09311889 46.49581261 -0.11746028 44.98728644 -0.11352539 43.48022461 C-0.11340454 42.50581421 -0.11328369 41.53140381 -0.11315918 40.52746582 C-0.10804321 39.49617554 -0.10292725 38.46488525 -0.09765625 37.40234375 C-0.09664917 36.45975708 -0.09564209 35.51717041 -0.09460449 34.54602051 C-0.08935477 31.00983471 -0.07539364 27.47366619 -0.0625 23.9375 C-0.041875 16.038125 -0.02125 8.13875 0 0 Z M4 4 C4 4.33 4 4.66 4 5 C26.11 5 48.22 5 71 5 C71 4.67 71 4.34 71 4 C48.89 4 26.78 4 4 4 Z M4 9 C4 20.55 4 32.1 4 44 C8.2752857 43.14494286 10.02118727 42.6236717 13.5 40.4375 C14.35851563 39.90640625 15.21703125 39.3753125 16.1015625 38.828125 C17.05804688 38.22484375 18.01453125 37.6215625 19 37 C20.71350973 35.91937202 22.42817521 34.84080555 24.14648438 33.76782227 C25.80705327 32.72996671 27.46224366 31.68352058 29.1171875 30.63671875 C31.52462753 29.26989304 33.302376 28.449604 36 28 C36 28.66 36 29.32 36 30 C36.99 30.33 37.98 30.66 39 31 C39.66 30.67 40.32 30.34 41 30 C41 29.34 41 28.68 41 28 C41.66 28 42.32 28 43 28 C43 27.34 43 26.68 43 26 C43.598125 25.71125 44.19625 25.4225 44.8125 25.125 C47.19327792 23.95257974 47.19327792 23.95257974 50 22 C50 21.34 50 20.68 50 20 C50.66 20 51.32 20 52 20 C52 19.34 52 18.68 52 18 C53.65 17.67 55.3 17.34 57 17 C57.268125 17.639375 57.53625 18.27875 57.8125 18.9375 C58.88667752 21.33131686 58.88667752 21.33131686 62 22 C62 22.66 62 23.32 62 24 C62.66 24 63.32 24 64 24 C64 24.66 64 25.32 64 26 C64.66 26 65.32 26 66 26 C66.268125 26.61875 66.53625 27.2375 66.8125 27.875 C67.95556848 30.2995233 67.95556848 30.2995233 71 32 C71 24.41 71 16.82 71 9 C48.89 9 26.78 9 4 9 Z M54 23 C52.61767557 24.62626404 51.28062485 26.2925002 50 28 C50.99 28.495 50.99 28.495 52 29 C52.33 28.34 52.66 27.68 53 27 C55.5625 26.375 55.5625 26.375 58 26 C57.34 25.01 56.68 24.02 56 23 C55.34 23 54.68 23 54 23 Z M46 30 C44.37506099 31.12109566 44.37506099 31.12109566 43 33 C42.74951364 36.12549017 42.74951364 36.12549017 43 39 C39.59244728 37.07119658 36.25852365 35.1723491 33 33 C30.53948606 34.45475642 28.08156948 35.91361012 25.625 37.375 C24.57699219 37.99375 24.57699219 37.99375 23.5078125 38.625 C22.8375 39.02460937 22.1671875 39.42421875 21.4765625 39.8359375 C20.85861816 40.20251465 20.24067383 40.5690918 19.60400391 40.94677734 C17.83209267 42.03259894 17.83209267 42.03259894 16 44 C34.15 44 52.3 44 71 44 C71.59136366 38.4188826 71.59136366 38.4188826 69.625 36.125 C68.05533986 34.81026334 68.05533986 34.81026334 66 35 C65.505 33.515 65.505 33.515 65 32 C61.7 31.67 58.4 31.34 55 31 C55 31.66 55 32.32 55 33 C51.85375007 33.26218749 50.38162983 33.24754367 47.6875 31.5 C47.130625 31.005 46.57375 30.51 46 30 Z " fill="#CC2F57" transform="translate(22,22)"/>
<path d="M0 0 C1.79244141 0.01740234 1.79244141 0.01740234 3.62109375 0.03515625 C5.41740234 0.04869141 5.41740234 0.04869141 7.25 0.0625 C8.17683594 0.07410156 9.10367188 0.08570313 10.05859375 0.09765625 C17.32498719 16.03208248 17.32498719 16.03208248 16.05859375 21.09765625 C12.75859375 21.09765625 9.45859375 21.09765625 6.05859375 21.09765625 C6.05859375 22.41765625 6.05859375 23.73765625 6.05859375 25.09765625 C7.37859375 25.42765625 8.69859375 25.75765625 10.05859375 26.09765625 C10.05859375 27.08765625 10.05859375 28.07765625 10.05859375 29.09765625 C12.36859375 29.09765625 14.67859375 29.09765625 17.05859375 29.09765625 C17.05859375 41.30765625 17.05859375 53.51765625 17.05859375 66.09765625 C14.08859375 66.09765625 11.11859375 66.09765625 8.05859375 66.09765625 C8.05859375 64.77765625 8.05859375 63.45765625 8.05859375 62.09765625 C4.75859375 62.09765625 1.45859375 62.09765625 -1.94140625 62.09765625 C-1.94140625 63.41765625 -1.94140625 64.73765625 -1.94140625 66.09765625 C-4.91140625 66.09765625 -7.88140625 66.09765625 -10.94140625 66.09765625 C-10.94140625 53.88765625 -10.94140625 41.67765625 -10.94140625 29.09765625 C-7.97140625 29.09765625 -5.00140625 29.09765625 -1.94140625 29.09765625 C-1.94140625 27.77765625 -1.94140625 26.45765625 -1.94140625 25.09765625 C-0.95140625 25.09765625 0.03859375 25.09765625 1.05859375 25.09765625 C1.05859375 23.77765625 1.05859375 22.45765625 1.05859375 21.09765625 C-2.24140625 21.09765625 -5.54140625 21.09765625 -8.94140625 21.09765625 C-9.78802959 13.81669549 -6.84792653 7.67306278 -3.94140625 1.09765625 C-2.94140625 0.09765625 -2.94140625 0.09765625 0 0 Z M0.05859375 5.09765625 C-1.7369404 7.79095747 -2.36837086 9.24371635 -3.06640625 12.28515625 C-3.35515625 13.54328125 -3.64390625 14.80140625 -3.94140625 16.09765625 C1.00859375 16.09765625 5.95859375 16.09765625 11.05859375 16.09765625 C9.73859375 12.46765625 8.41859375 8.83765625 7.05859375 5.09765625 C3.64216616 4.84749752 3.64216616 4.84749752 0.05859375 5.09765625 Z M0.05859375 33.09765625 C0.05859375 33.42765625 0.05859375 33.75765625 0.05859375 34.09765625 C2.36859375 34.09765625 4.67859375 34.09765625 7.05859375 34.09765625 C7.05859375 33.76765625 7.05859375 33.43765625 7.05859375 33.09765625 C4.74859375 33.09765625 2.43859375 33.09765625 0.05859375 33.09765625 Z M7.05859375 34.09765625 C7.05859375 35.74765625 7.05859375 37.39765625 7.05859375 39.09765625 C4.41859375 39.09765625 1.77859375 39.09765625 -0.94140625 39.09765625 C-0.94140625 37.44765625 -0.94140625 35.79765625 -0.94140625 34.09765625 C-2.92140625 34.09765625 -4.90140625 34.09765625 -6.94140625 34.09765625 C-6.94140625 37.06765625 -6.94140625 40.03765625 -6.94140625 43.09765625 C-0.01140625 43.09765625 6.91859375 43.09765625 14.05859375 43.09765625 C14.05859375 39.79765625 14.05859375 36.49765625 14.05859375 33.09765625 C11.71999939 33.09765625 9.35828952 33.70621867 7.05859375 34.09765625 Z M-6.94140625 48.09765625 C-6.94140625 51.06765625 -6.94140625 54.03765625 -6.94140625 57.09765625 C-0.01140625 57.09765625 6.91859375 57.09765625 14.05859375 57.09765625 C14.05859375 54.12765625 14.05859375 51.15765625 14.05859375 48.09765625 C7.12859375 48.09765625 0.19859375 48.09765625 -6.94140625 48.09765625 Z " fill="#CA2C54" transform="translate(110.94140625,61.90234375)"/>
<path d="M0 0 C3.04954345 2.5244146 5.23498157 5.46996314 7 9 C7.44250802 13.86758823 6.40920141 16.78389753 4 21 C3.34 21 2.68 21 2 21 C2 21.66 2 22.32 2 23 C-2.32943759 25.44877692 -6.11415853 25.70281602 -11 25 C-14.8026029 22.9949912 -16.61790841 21.57313738 -19 18 C-19.70839452 13.27964033 -20.24769688 8.16321471 -17.796875 3.9140625 C-12.75322193 -1.30790153 -6.77483072 -2.14497236 0 0 Z M-14 7 C-15.01805969 10.34505326 -15.17142227 12.37145167 -14.25 15.75 C-13.06510167 18.28734531 -13.06510167 18.28734531 -10 20 C-5.59815002 20.57061018 -3.70162792 20.50756062 -0.0625 17.875 C2.17743666 15.16232816 2.17743666 15.16232816 2.625 12 C1.76936783 7.89296559 0.38121991 6.44598887 -3 4 C-7.58807471 3.35605969 -10.85768284 3.37424943 -14 7 Z " fill="#D04065" transform="translate(121,24)"/>
<path d="M0 0 C5.15171623 -0.09038099 9.91913204 0.15318867 15 1 C15 2.65 15 4.3 15 6 C12.36 6 9.72 6 7 6 C7 4.35 7 2.7 7 1 C5.02 1 3.04 1 1 1 C1 3.97 1 6.94 1 10 C7.93 10 14.86 10 22 10 C22 10.33 22 10.66 22 11 C14.74 11 7.48 11 0 11 C0 7.37 0 3.74 0 0 Z " fill="#F0ABBC" transform="translate(103,95)"/>
<path d="M0 0 C1.65 0 3.3 0 5 0 C5.1953125 6.0546875 5.1953125 6.0546875 5 8 C3 10 3 10 -0.125 10.125 C-1.548125 10.063125 -1.548125 10.063125 -3 10 C-3 8.35 -3 6.7 -3 5 C-2.01 5 -1.02 5 0 5 C0 3.35 0 1.7 0 0 Z " fill="#D2496C" transform="translate(112,29)"/>
<path d="M0 0 C2.64 0 5.28 0 8 0 C8 1.32 8 2.64 8 4 C5.36 4 2.72 4 0 4 C0 2.68 0 1.36 0 0 Z " fill="#CF395F" transform="translate(110,111)"/>
<path d="M0 0 C2.31 0 4.62 0 7 0 C7 0.99 7 1.98 7 3 C4.69 3 2.38 3 0 3 C0 2.01 0 1.02 0 0 Z " fill="#BD002F" transform="translate(111,97)"/>
</svg>
