<?xml version="1.0" encoding="UTF-8"?>
<svg version="1.1" xmlns="http://www.w3.org/2000/svg" width="150" height="150">
<path d="M0 0 C5.28 0 10.56 0 16 0 C16 12.54 16 25.08 16 38 C24.21197266 37.98259766 24.21197266 37.98259766 32.58984375 37.96484375 C36.0488293 37.95973694 39.50781024 37.95492317 42.96679688 37.95117188 C48.46249349 37.94518363 53.95817351 37.93808381 59.45385742 37.92456055 C63.88233688 37.913731 68.31079856 37.90772302 72.73929024 37.90512276 C74.43265628 37.90326863 76.12602129 37.89964825 77.81937981 37.89426994 C80.18291232 37.8870586 82.54637045 37.8860091 84.90991211 37.88647461 C85.61697296 37.88287933 86.32403381 37.87928406 87.05252075 37.87557983 C91.88594784 37.88594784 91.88594784 37.88594784 93 39 C93.08783542 41.21855264 93.10694609 43.43988496 93.09765625 45.66015625 C93.0962413 46.32462265 93.09482635 46.98908905 93.09336853 47.6736908 C93.08775518 49.80333899 93.07520054 51.93288339 93.0625 54.0625 C93.05748671 55.50325369 93.05292351 56.94400903 93.04882812 58.38476562 C93.03863076 61.92324958 93.0190583 65.46150813 93 69 C87.72 69 82.44 69 77 69 C77 64.38 77 59.76 77 55 C56.87 55 36.74 55 16 55 C16 59.62 16 64.24 16 69 C10.72 69 5.44 69 0 69 C0 46.23 0 23.46 0 0 Z M4 4 C4 24.13 4 44.26 4 65 C6.31 65 8.62 65 11 65 C11.33 60.38 11.66 55.76 12 51 C34.77 51 57.54 51 81 51 C81.495 57.93 81.495 57.93 82 65 C84.31 65 86.62 65 89 65 C89 57.74 89 50.48 89 43 C63.59 42.67 38.18 42.34 12 42 C11.67 29.46 11.34 16.92 11 4 C8.69 4 6.38 4 4 4 Z " fill="#CB2C54" transform="translate(29,46)"/>
<path d="M0 0 C1.99291171 -0.01702728 3.98553627 -0.06088134 5.97802734 -0.10522461 C14.25800527 -0.15964307 21.64283608 0.11829486 27.89794922 6.07519531 C31.82203061 10.37861271 34.32914693 14.08366249 34.15380859 20.04516602 C34.13576172 20.84438477 34.11771484 21.64360352 34.09912109 22.46704102 C34.07591797 23.07032227 34.05271484 23.67360352 34.02880859 24.29516602 C31.73677871 25.44118096 30.43424169 25.42753841 27.88623047 25.44042969 C26.60480164 25.44999947 26.60480164 25.44999947 25.29748535 25.45976257 C23.91152161 25.46143181 23.91152161 25.46143181 22.49755859 25.46313477 C21.5507019 25.46646317 20.60384521 25.46979156 19.6282959 25.47322083 C17.62427253 25.47828848 15.62024071 25.4806292 13.61621094 25.48046875 C10.54136356 25.48265708 7.46687378 25.50081956 4.39208984 25.51977539 C2.44808066 25.52270891 0.50406976 25.52469398 -1.43994141 25.52563477 C-2.36391724 25.53282028 -3.28789307 25.5400058 -4.23986816 25.54740906 C-5.09415405 25.54433243 -5.94843994 25.5412558 -6.82861328 25.53808594 C-7.58203003 25.53951096 -8.33544678 25.54093597 -9.11169434 25.54240417 C-10.97119141 25.29516602 -10.97119141 25.29516602 -12.97119141 23.29516602 C-13.21411133 21.06445312 -13.21411133 21.06445312 -13.20166016 18.32250977 C-13.19972656 17.34088867 -13.19779297 16.35926758 -13.19580078 15.34790039 C-13.18355469 14.31987305 -13.17130859 13.2918457 -13.15869141 12.23266602 C-13.15804687 11.20077148 -13.15740234 10.16887695 -13.15673828 9.10571289 C-13.09361934 -1.56138845 -10.21841939 0.06069122 0 0 Z M-7.97119141 5.29516602 C-7.97119141 10.24516602 -7.97119141 15.19516602 -7.97119141 20.29516602 C4.56880859 20.29516602 17.10880859 20.29516602 30.02880859 20.29516602 C27.17579544 12.68713093 25.81523904 9.59061223 18.69213867 6.17456055 C15.73086932 5.19679061 13.40331682 5.06656165 10.29052734 5.09985352 C9.22382812 5.10629883 8.15712891 5.11274414 7.05810547 5.11938477 C5.9553125 5.13614258 4.85251953 5.15290039 3.71630859 5.17016602 C2.59417969 5.17918945 1.47205078 5.18821289 0.31591797 5.19750977 C-2.44654357 5.22102008 -5.20889501 5.25688939 -7.97119141 5.29516602 Z " fill="#CE385E" transform="translate(87.97119140625,56.704833984375)"/>
<path d="M0 0 C3.33597066 2.35080621 5.51268324 5.03562237 6.50390625 9.03125 C6.71690197 12.60408143 5.95070569 15.10450393 4.4375 18.3125 C1.4484804 21.60808572 -0.70594033 22.83550924 -5 24 C-10.57372568 23.23121025 -13.39075283 21.24617314 -17 17 C-18.61622481 13.76755038 -18.58454308 10.49426864 -18 7 C-13.98143702 -0.36200738 -7.74235306 -2.48718078 0 0 Z M-10.875 5.5625 C-13.24449603 7.85046256 -13.24449603 7.85046256 -13.5 11 C-12.93500217 14.38998695 -12.68060724 15.82200662 -10 18 C-6.42422767 18.66300779 -3.24104443 18.65930485 0 16.9375 C1.58433618 13.86784865 1.36248449 11.38318857 1 8 C-0.60253529 5.32910785 -1.89976136 5.03268651 -4.875 4.0625 C-8.08754252 3.74034039 -8.08754252 3.74034039 -10.875 5.5625 Z " fill="#CD375C" transform="translate(66,58)"/>
</svg>
