<?xml version="1.0" encoding="UTF-8"?>
<svg version="1.1" xmlns="http://www.w3.org/2000/svg" width="150" height="150">
<path d="M0 0 C1.97226563 -0.00290039 1.97226563 -0.00290039 3.984375 -0.00585938 C5.0043457 0.01287231 5.0043457 0.01287231 6.04492188 0.03198242 C8.11987007 0.06632135 10.19055909 0.05262614 12.265625 0.03320312 C22.29423749 0.10694292 22.29423749 0.10694292 25.96899414 2.41577148 C28.11346953 4.61707025 28.85936738 5.66754752 29.49609375 8.60546875 C29.6751123 9.3543335 29.85413086 10.10319824 30.03857422 10.87475586 C30.29791748 12.0524353 30.29791748 12.0524353 30.5625 13.25390625 C32.17443402 19.86124631 34.07570511 25.18075305 38.0859375 30.78125 C38.42882812 31.39097656 38.77171875 32.00070313 39.125 32.62890625 C38.125 35.62890625 38.125 35.62890625 36.125 36.62890625 C34.12539988 36.66889825 32.12452758 36.67237424 30.125 36.62890625 C30.0425 37.66015625 29.96 38.69140625 29.875 39.75390625 C28.60859795 46.29698351 24.86973517 50.14776748 20.125 54.62890625 C20.455 55.61890625 20.785 56.60890625 21.125 57.62890625 C21.92164063 57.73847656 22.71828125 57.84804687 23.5390625 57.9609375 C34.11543559 59.54353347 39.56567908 62.11805184 46.125 70.62890625 C49.70581307 77.79053238 47.125 86.62196482 47.125 94.62890625 C21.385 94.62890625 -4.355 94.62890625 -30.875 94.62890625 C-30.875 70.76779514 -30.875 70.76779514 -23.625 63.31640625 C-17.13693117 59.33509128 -10.36712791 58.22351958 -2.875 57.62890625 C-3.45457157 54.5527187 -3.61032926 53.83635088 -6.1875 51.81640625 C-10.45559103 48.34237867 -12.45791485 44.54054653 -13.625 39.19140625 C-13.7075 38.34578125 -13.79 37.50015625 -13.875 36.62890625 C-14.82375 36.64953125 -15.7725 36.67015625 -16.75 36.69140625 C-19.875 36.62890625 -19.875 36.62890625 -21.875 35.62890625 C-21.32513532 32.13031671 -20.50022497 29.76198816 -18.5625 26.81640625 C-15.66814135 21.89848452 -14.53096466 16.85654071 -13.4831543 11.30151367 C-11.8168227 3.37604212 -8.06405381 -0.00487745 0 0 Z M-7.875 7.62890625 C-8.865 11.58890625 -9.855 15.54890625 -10.875 19.62890625 C1.665 19.62890625 14.205 19.62890625 27.125 19.62890625 C25.84003217 7.27680729 25.84003217 7.27680729 21.125 4.62890625 C16.80568502 4.18619221 12.46450474 4.30476595 8.125 4.31640625 C6.92359375 4.30029297 5.7221875 4.28417969 4.484375 4.26757812 C3.33453125 4.26693359 2.1846875 4.26628906 1 4.265625 C-0.05445313 4.26264404 -1.10890625 4.25966309 -2.1953125 4.2565918 C-5.25654117 4.40737876 -5.25654117 4.40737876 -7.875 7.62890625 Z M-12.875 24.62890625 C-14.36 28.09390625 -14.36 28.09390625 -15.875 31.62890625 C-0.035 31.62890625 15.805 31.62890625 32.125 31.62890625 C30.72124169 28.08568737 30.72124169 28.08568737 29.125 24.62890625 C15.265 24.62890625 1.405 24.62890625 -12.875 24.62890625 Z M-8.875 36.62890625 C-7.73369131 43.47675836 -5.8914586 46.11926512 -0.875 50.62890625 C3.45423903 52.79352577 7.32513208 53.12544431 12.125 52.62890625 C17.34612404 50.81669622 21.21341669 48.44421711 24.125 43.62890625 C24.785 41.31890625 25.445 39.00890625 26.125 36.62890625 C14.575 36.62890625 3.025 36.62890625 -8.875 36.62890625 Z M1.125 55.62890625 C1.47347835 59.26406847 1.47347835 59.26406847 3.6875 62.00390625 C7.39469275 62.95446849 10.36325272 62.30725412 14.125 61.62890625 C15.42133621 60.5624551 15.42133621 60.5624551 15.1875 58.06640625 C15.166875 57.26203125 15.14625 56.45765625 15.125 55.62890625 C13.6090625 55.90734375 13.6090625 55.90734375 12.0625 56.19140625 C8.14585773 56.62658872 4.98255337 56.33743646 1.125 55.62890625 Z M-4.875 62.62890625 C-3.885 65.92890625 -2.895 69.22890625 -1.875 72.62890625 C5.055 72.62890625 11.985 72.62890625 19.125 72.62890625 C19.785 69.32890625 20.445 66.02890625 21.125 62.62890625 C17.11378879 63.39347077 17.11378879 63.39347077 14.125 65.62890625 C8.11623561 66.3451212 3.09744827 66.35824245 -1.875 62.62890625 C-2.865 62.62890625 -3.855 62.62890625 -4.875 62.62890625 Z M-21.875 67.62890625 C-26.16172609 73.01479288 -27.00311465 76.8388296 -26.875 83.62890625 C-22.585 83.95890625 -18.295 84.28890625 -13.875 84.62890625 C-13.545 86.60890625 -13.215 88.58890625 -12.875 90.62890625 C-11.555 90.62890625 -10.235 90.62890625 -8.875 90.62890625 C-8.545 85.01890625 -8.215 79.40890625 -7.875 73.62890625 C-7.215 73.29890625 -6.555 72.96890625 -5.875 72.62890625 C-7.36 68.17390625 -7.36 68.17390625 -8.875 63.62890625 C-13.90180853 63.00055518 -17.80209031 64.84262703 -21.875 67.62890625 Z M26.125 63.62890625 C25.56211057 64.84850002 25.02553505 66.08025643 24.5 67.31640625 C24.19835937 68.00089844 23.89671875 68.68539062 23.5859375 69.390625 C22.9699134 72.38199625 23.95377053 73.83096919 25.125 76.62890625 C25.40835716 79.0588276 25.61303459 81.49885645 25.75 83.94140625 C25.82476562 85.19566406 25.89953125 86.44992188 25.9765625 87.7421875 C26.05003906 89.17111328 26.05003906 89.17111328 26.125 90.62890625 C27.445 90.29890625 28.765 89.96890625 30.125 89.62890625 C30.125 87.97890625 30.125 86.32890625 30.125 84.62890625 C36.56 84.13390625 36.56 84.13390625 43.125 83.62890625 C43.5128224 77.22983672 43.55698595 73.64404824 39.125 68.62890625 C34.88622851 65.14369414 31.57299814 64.0647461 26.125 63.62890625 Z M-3.875 76.62890625 C-5.18762571 77.71442991 -5.18762571 77.71442991 -4.97265625 80.3515625 C-4.96105469 81.45371094 -4.94945313 82.55585937 -4.9375 83.69140625 C-4.92847656 84.79613281 -4.91945313 85.90085937 -4.91015625 87.0390625 C-4.89855469 87.89371094 -4.88695313 88.74835938 -4.875 89.62890625 C-3.555 89.95890625 -2.235 90.28890625 -0.875 90.62890625 C-0.95878906 89.9534375 -1.04257813 89.27796875 -1.12890625 88.58203125 C-1.23074219 87.69 -1.33257812 86.79796875 -1.4375 85.87890625 C-1.54191406 84.9971875 -1.64632812 84.11546875 -1.75390625 83.20703125 C-1.86956676 80.74458174 -1.61138695 78.96352561 -0.875 76.62890625 C-1.865 76.62890625 -2.855 76.62890625 -3.875 76.62890625 Z M17.125 76.62890625 C17.49625 77.82515625 17.8675 79.02140625 18.25 80.25390625 C19.28232434 84.28283873 18.85601363 86.78220929 17.125 90.62890625 C18.445 90.62890625 19.765 90.62890625 21.125 90.62890625 C21.125 86.00890625 21.125 81.38890625 21.125 76.62890625 C19.805 76.62890625 18.485 76.62890625 17.125 76.62890625 Z M2.125 79.62890625 C1.3774152 82.43234925 1.39576335 84.82280363 2.125 87.62890625 C4.19663629 89.8719126 4.19663629 89.8719126 7.125 90.62890625 C9.95528135 90.49413095 11.58400646 89.95350237 14 88.50390625 C15.42512252 86.49313654 15.42512252 86.49313654 15.125 83.12890625 C14.45735206 79.50741911 14.45735206 79.50741911 11.6875 77.69140625 C7.52886131 75.96709265 5.56137182 76.73511945 2.125 79.62890625 Z M-26.875 87.62890625 C-26.875 88.61890625 -26.875 89.60890625 -26.875 90.62890625 C-23.575 90.62890625 -20.275 90.62890625 -16.875 90.62890625 C-16.875 89.63890625 -16.875 88.64890625 -16.875 87.62890625 C-20.175 87.62890625 -23.475 87.62890625 -26.875 87.62890625 Z M34.125 87.62890625 C34.125 88.61890625 34.125 89.60890625 34.125 90.62890625 C37.095 90.62890625 40.065 90.62890625 43.125 90.62890625 C43.125 89.63890625 43.125 88.64890625 43.125 87.62890625 C40.155 87.62890625 37.185 87.62890625 34.125 87.62890625 Z " fill="#CD335A" transform="translate(66.875,27.37109375)"/>
<path d="M0 0 C1.65 0.33 3.3 0.66 5 1 C5.625 3.375 5.625 3.375 6 6 C5.34 6.66 4.68 7.32 4 8 C1.375 7.625 1.375 7.625 -1 7 C-1.625 5.1875 -1.625 5.1875 -2 3 C-1.34 2.01 -0.68 1.02 0 0 Z " fill="#D04165" transform="translate(73,107)"/>
</svg>
