<?xml version="1.0" encoding="UTF-8"?>
<svg version="1.1" xmlns="http://www.w3.org/2000/svg" width="150" height="150">
<path d="M0 0 C4.18145284 1.72712182 6.42475328 4.32107611 9 8 C9.96070434 10.88211302 10.10581883 12.69850044 10.0625 15.6875 C10.05347656 16.49574219 10.04445312 17.30398437 10.03515625 18.13671875 C10.02355469 18.75160156 10.01195312 19.36648437 10 20 C9.34 20 8.68 20 8 20 C8.0825 20.86625 8.165 21.7325 8.25 22.625 C7.94371259 26.75988007 6.47891278 28.74642697 4 32 C4.60328125 32.23074219 5.2065625 32.46148437 5.828125 32.69921875 C11.61515809 35.06070161 15.11912519 37.23825038 18 43 C18.06996014 44.70702735 18.08440154 46.41668003 18.0625 48.125 C18.05347656 49.03507812 18.04445312 49.94515625 18.03515625 50.8828125 C18.02355469 51.58148438 18.01195312 52.28015625 18 53 C20.31 53 22.62 53 25 53 C25.0825 52.401875 25.165 51.80375 25.25 51.1875 C26.20455872 48.4033704 27.57132271 47.56688858 30 46 C29.01 45.01 28.02 44.02 27 43 C28.0625 41.5 28.0625 41.5 30 40 C36.13846154 39.56923077 36.13846154 39.56923077 39 41 C38.125 44.875 38.125 44.875 37 46 C37.825 46.598125 38.65 47.19625 39.5 47.8125 C40.325 48.534375 41.15 49.25625 42 50 C42 50.99 42 51.98 42 53 C46.29 53 50.58 53 55 53 C55 56.63 55 60.26 55 64 C53.515 64.495 53.515 64.495 52 65 C52 75.23 52 85.46 52 96 C22.3 96 -7.4 96 -38 96 C-38 85.77 -38 75.54 -38 65 C-38.99 64.67 -39.98 64.34 -41 64 C-41 60.37 -41 56.74 -41 53 C-36.71 53 -32.42 53 -28 53 C-28.061875 51.63875 -28.12375 50.2775 -28.1875 48.875 C-28.17377492 44.50356253 -27.49263386 41.69597434 -25 38 C-21.62680284 34.71797033 -18.51250751 33.25930442 -14 32 C-14.99 30.700625 -14.99 30.700625 -16 29.375 C-18.12695385 25.78576537 -18.38790972 24.07305202 -18 20 C-18.66 20 -19.32 20 -20 20 C-20.34573147 14.23780888 -20.34446833 9.95903925 -17 5 C-11.39097283 -0.06180501 -7.39754371 -0.64275656 0 0 Z M-13 7 C-15.29013653 10.4352048 -15.17842973 11.985331 -15 16 C-13.10388566 15.85786703 -11.20811606 15.71113093 -9.3125 15.5625 C-8.25675781 15.48128906 -7.20101562 15.40007813 -6.11328125 15.31640625 C-3.04961943 15.06572364 -3.04961943 15.06572364 -0.29296875 14.40234375 C2 14 2 14 5 15 C4.97350778 11.6365731 4.97350778 11.6365731 4 8 C0.9863566 5.26669552 -1.03407728 4.13798896 -5.0625 3.5625 C-8.41465104 4.06175654 -10.29834822 4.97376116 -13 7 Z M-7.3125 18.875 C-8.38113281 19.07867187 -9.44976562 19.28234375 -10.55078125 19.4921875 C-11.35902344 19.65976562 -12.16726562 19.82734375 -13 20 C-13.29662142 24.46608808 -13.29662142 24.46608808 -11.3125 28.3125 C-8.6643116 30.24496181 -7.27995671 30.92190579 -4 31 C-0.70138447 30.22594981 -0.70138447 30.22594981 2 28 C3.11959833 25.30447416 3.5222599 22.91421464 4 20 C-0.16849129 17.91188748 -2.77846452 17.97815782 -7.3125 18.875 Z M-7 35 C-6.67 35.66 -6.34 36.32 -6 37 C-5.01 36.67 -4.02 36.34 -3 36 C-4.32 35.67 -5.64 35.34 -7 35 Z M-13 37 C-12.34 38.32 -11.68 39.64 -11 41 C-10.34 41 -9.68 41 -9 41 C-9.66 39.68 -10.32 38.36 -11 37 C-11.66 37 -12.32 37 -13 37 Z M1 37 C0.34 38.32 -0.32 39.64 -1 41 C-0.01 40.67 0.98 40.34 2 40 C2.33 39.01 2.66 38.02 3 37 C2.34 37 1.68 37 1 37 Z M-21.85546875 41.22265625 C-24.14108468 44.77199157 -23.83536177 48.88404418 -24 53 C-20.37 53 -16.74 53 -13 53 C-12.01 51.02 -11.02 49.04 -10 47 C-10.99 46.67 -11.98 46.34 -13 46 C-14.16796875 44.15234375 -14.16796875 44.15234375 -15.1875 41.9375 C-15.53167969 41.20402344 -15.87585937 40.47054687 -16.23046875 39.71484375 C-16.48441406 39.14894531 -16.73835938 38.58304688 -17 38 C-19.11454839 38 -20.45238855 39.82766297 -21.85546875 41.22265625 Z M7 38 C6.74605469 38.55429688 6.49210937 39.10859375 6.23046875 39.6796875 C5.88628906 40.40414062 5.54210937 41.12859375 5.1875 41.875 C4.85105469 42.59429687 4.51460937 43.31359375 4.16796875 44.0546875 C3 46 3 46 0 48 C0.69512279 50.69682467 0.69512279 50.69682467 3 53 C6.69681924 53.46346554 10.29212965 53.28328381 14 53 C14.0208878 45.80725082 14.0208878 45.80725082 10.5 39.875 C8.3875 37.9 8.3875 37.9 7 38 Z M-7 50 C-7.33 50.99 -7.66 51.98 -8 53 C-6.02 53 -4.04 53 -2 53 C-2.66 52.01 -3.32 51.02 -4 50 C-4.99 50 -5.98 50 -7 50 Z M30 51 C29.67 51.66 29.34 52.32 29 53 C31.97 53 34.94 53 38 53 C37.67 52.34 37.34 51.68 37 51 C34.69 51 32.38 51 30 51 Z M-37 58 C-37 58.66 -37 59.32 -37 60 C-7.96 60 21.08 60 51 60 C51 59.34 51 58.68 51 58 C21.96 58 -7.08 58 -37 58 Z M-33 65 C-33 73.91 -33 82.82 -33 92 C-6.27 92 20.46 92 48 92 C48 83.09 48 74.18 48 65 C21.27 65 -5.46 65 -33 65 Z " fill="#CE385E" transform="translate(68,27)"/>
<path d="M0 0 C0.69933655 -0.00175232 1.3986731 -0.00350464 2.11920166 -0.00531006 C4.43626368 -0.0097197 6.75324967 -0.0067937 9.0703125 -0.00341797 C10.67692072 -0.00409126 12.28352885 -0.0050615 13.89013672 -0.00631714 C17.25944996 -0.00779291 20.62873671 -0.00564342 23.99804688 -0.00097656 C28.32264311 0.00472066 32.64717728 0.00144101 36.97177124 -0.00454903 C40.28996246 -0.00815789 43.60813891 -0.00701455 46.92633057 -0.00442123 C48.52117927 -0.00375287 50.11602931 -0.00457725 51.71087646 -0.00690079 C53.93749561 -0.00943263 56.16401343 -0.00557919 58.390625 0 C60.29352295 0.00119339 60.29352295 0.00119339 62.23486328 0.00241089 C65.1953125 0.12939453 65.1953125 0.12939453 67.1953125 1.12939453 C66.8653125 2.44939453 66.5353125 3.76939453 66.1953125 5.12939453 C41.7753125 5.12939453 17.3553125 5.12939453 -7.8046875 5.12939453 C-8.1346875 3.80939453 -8.4646875 2.48939453 -8.8046875 1.12939453 C-5.87125347 -0.33732248 -3.2751384 0.00205398 0 0 Z " fill="#D44D6F" transform="translate(45.8046875,107.87060546875)"/>
</svg>
