<?xml version="1.0" encoding="UTF-8"?>
<svg version="1.1" xmlns="http://www.w3.org/2000/svg" width="150" height="150">
<path d="M0 0 C1.29422379 0.00212242 1.29422379 0.00212242 2.61459351 0.00428772 C5.3759098 0.00989437 8.13714562 0.02244798 10.8984375 0.03515625 C12.768228 0.04017039 14.63801976 0.04473345 16.5078125 0.04882812 C21.09638527 0.05986596 25.68489773 0.07713505 30.2734375 0.09765625 C30.2734375 1.41765625 30.2734375 2.73765625 30.2734375 4.09765625 C29.20383789 4.1227124 28.13423828 4.14776855 27.03222656 4.17358398 C23.05880023 4.26785153 19.08554082 4.36802483 15.11230469 4.4699707 C13.39359445 4.51324641 11.67484326 4.55492666 9.95605469 4.5949707 C7.4835985 4.6528519 5.01134703 4.71649461 2.5390625 4.78125 C1.38884613 4.80631874 1.38884613 4.80631874 0.21539307 4.83189392 C-3.30550185 4.92936844 -6.28689899 5.23774037 -9.7265625 6.09765625 C-9.3965625 17.97765625 -9.0665625 29.85765625 -8.7265625 42.09765625 C-5.01006389 43.95590556 -0.78147697 43.55147662 3.2734375 43.09765625 C6.20252428 42.02271896 8.57157213 40.69876166 11.2734375 39.09765625 C10.561875 38.20046875 10.561875 38.20046875 9.8359375 37.28515625 C6.90866537 33.18697526 6.76326874 28.97672477 7.2734375 24.09765625 C9.21739706 18.87965953 12.31286904 14.8764852 17.1328125 11.98046875 C21.58617125 10.14386459 26.72614475 10.32367115 31.3046875 11.71484375 C36.21620552 14.14906102 39.30875011 18.02076493 41.2734375 23.09765625 C42.15271738 28.09566818 42.11673075 32.40166579 39.2734375 36.72265625 C38.6134375 37.50640625 37.9534375 38.29015625 37.2734375 39.09765625 C43.57668621 42.90339132 48.89252094 44.1662738 56.2734375 43.09765625 C58.73777284 40.63332091 58.50986105 39.25414884 58.52568054 35.89099121 C58.51849503 35.18575317 58.51130951 34.48051514 58.50390625 33.75390625 C58.50344803 33.02901001 58.50298981 32.30411377 58.5025177 31.55725098 C58.49949549 30.02399052 58.49161008 28.49073313 58.47924805 26.95751953 C58.46100989 24.60698603 58.45873824 22.25684682 58.45898438 19.90625 C58.45406841 18.41796533 58.44823975 16.92968335 58.44140625 15.44140625 C58.44029343 14.73616821 58.4391806 14.03093018 58.43803406 13.30432129 C58.45356197 9.57617112 58.45356197 9.57617112 57.2734375 6.09765625 C54.69391876 5.40671729 54.69391876 5.40671729 51.7109375 4.97265625 C50.69902344 4.80507813 49.68710938 4.6375 48.64453125 4.46484375 C47.86207031 4.34367187 47.07960938 4.2225 46.2734375 4.09765625 C46.2734375 2.77765625 46.2734375 1.45765625 46.2734375 0.09765625 C47.97948337 -0.03894885 49.6887919 -0.13506029 51.3984375 -0.21484375 C52.82542969 -0.30185547 52.82542969 -0.30185547 54.28125 -0.390625 C58.2577515 0.2582819 60.81479034 1.97385242 63.2734375 5.09765625 C64.12800082 7.98073435 64.09303665 10.73171752 64.03515625 13.72265625 C64.03852493 14.54717285 64.04189362 15.37168945 64.04536438 16.22119141 C64.04506621 17.95937354 64.02988056 19.69760913 64.00073242 21.43554688 C63.96104926 24.09018026 63.98003051 26.73981549 64.00585938 29.39453125 C63.99829969 31.08725889 63.98734564 32.77997547 63.97265625 34.47265625 C63.9831324 35.65722412 63.9831324 35.65722412 63.99382019 36.86572266 C63.88555655 41.10922081 63.6292137 42.65891829 60.85595703 46.07885742 C57.5480936 48.66466974 55.31607746 49.2257143 51.2734375 50.09765625 C51.7684375 54.55265625 51.7684375 54.55265625 52.2734375 59.09765625 C53.15386719 59.03964844 54.03429687 58.98164062 54.94140625 58.921875 C56.10285156 58.87675781 57.26429687 58.83164063 58.4609375 58.78515625 C59.60949219 58.72714844 60.75804688 58.66914062 61.94140625 58.609375 C65.2734375 59.09765625 65.2734375 59.09765625 68.1796875 60.81640625 C71.45875377 65.95524144 70.80269713 70.95760343 70.5859375 76.91015625 C70.56337891 78.07998047 70.54082031 79.24980469 70.51757812 80.45507812 C70.45875841 83.33724394 70.37660891 86.21679306 70.2734375 89.09765625 C68.2934375 88.60265625 68.2934375 88.60265625 66.2734375 88.09765625 C66.2734375 83.47765625 66.2734375 78.85765625 66.2734375 74.09765625 C38.5534375 74.09765625 10.8334375 74.09765625 -17.7265625 74.09765625 C-17.7265625 79.04765625 -17.7265625 83.99765625 -17.7265625 89.09765625 C-19.0465625 89.09765625 -20.3665625 89.09765625 -21.7265625 89.09765625 C-21.87203795 85.03553413 -21.96069476 80.97408338 -22.0390625 76.91015625 C-22.08095703 75.75966797 -22.12285156 74.60917969 -22.16601562 73.42382812 C-22.28841642 64.97817358 -22.28841642 64.97817358 -19.6328125 60.81640625 C-16.094564 58.7238937 -13.99632264 58.5789815 -9.9140625 58.78515625 C-8.75261719 58.83027344 -7.59117188 58.87539062 -6.39453125 58.921875 C-5.07388672 59.00888672 -5.07388672 59.00888672 -3.7265625 59.09765625 C-3.3965625 56.12765625 -3.0665625 53.15765625 -2.7265625 50.09765625 C-4.86125 49.47890625 -4.86125 49.47890625 -7.0390625 48.84765625 C-10.95733628 47.71192472 -12.70276266 46.68137932 -14.7265625 43.09765625 C-15.03133876 40.25301645 -15.17095677 37.63300813 -15.16015625 34.7890625 C-15.1653981 33.985327 -15.17063995 33.18159149 -15.17604065 32.35350037 C-15.18245345 30.6564957 -15.18113342 28.95944654 -15.17260742 27.26245117 C-15.16410206 24.67220505 -15.19285858 22.08416871 -15.22460938 19.49414062 C-15.22622172 17.84244858 -15.22564322 16.19075264 -15.22265625 14.5390625 C-15.23389023 13.76808731 -15.24512421 12.99711212 -15.25669861 12.20277405 C-15.20842889 8.45952597 -14.86405172 6.31154207 -12.82055664 3.13256836 C-8.91061571 -0.66705362 -5.17379195 -0.03168587 0 0 Z M14.3984375 19.59765625 C11.66251871 23.24554797 11.6723792 27.74204202 12.2734375 32.09765625 C13.88267247 35.20118083 15.27691017 37.31467049 18.0234375 39.47265625 C23.27021469 40.93009436 26.92967438 40.81930681 31.6484375 38.28515625 C34.37829071 36.01027858 36.05936119 34.40690189 36.64453125 30.828125 C36.8044671 24.85342611 36.8044671 24.85342611 34.2734375 19.59765625 C27.57523808 14.0158234 21.41638013 13.98330215 14.3984375 19.59765625 Z M2.3984375 50.41015625 C0.88729941 53.53451965 0.88729941 53.53451965 1.2734375 59.09765625 C16.7834375 59.09765625 32.2934375 59.09765625 48.2734375 59.09765625 C47.23214374 50.60896624 47.23214374 50.60896624 43.7734375 47.59765625 C38.31803637 44.32441557 33.34833436 44.87565631 27.06201172 44.85742188 C25.04482109 44.84775869 23.02866834 44.81675595 21.01171875 44.78515625 C19.73167969 44.78 18.45164062 44.77484375 17.1328125 44.76953125 C15.96202148 44.76018555 14.79123047 44.75083984 13.58496094 44.74121094 C8.82590991 45.25346503 5.43337614 46.66706526 2.3984375 50.41015625 Z M-16.7265625 65.09765625 C-17.0565625 66.74765625 -17.3865625 68.39765625 -17.7265625 70.09765625 C9.9934375 70.09765625 37.7134375 70.09765625 66.2734375 70.09765625 C65.7784375 67.62265625 65.7784375 67.62265625 65.2734375 65.09765625 C61.53260619 62.60376871 59.58312977 62.8442835 55.11157227 62.83886719 C54.38604156 62.83536255 53.66051086 62.83185791 52.91299438 62.82824707 C50.51351363 62.81944135 48.11432753 62.82527534 45.71484375 62.83203125 C44.04719486 62.83068412 42.37954635 62.82874318 40.7118988 62.82623291 C37.21569075 62.8232831 33.71958486 62.82757413 30.22338867 62.83691406 C25.74313743 62.84829971 21.26312605 62.84175391 16.78288364 62.82976913 C13.33849788 62.82253913 9.8941689 62.82484386 6.44978142 62.83002472 C4.79797271 62.83135852 3.14615884 62.82972294 1.49435616 62.82506561 C-0.8156688 62.81998261 -3.12530658 62.82773576 -5.43530273 62.83886719 C-7.40695656 62.84125397 -7.40695656 62.84125397 -9.41844177 62.84368896 C-13.4172077 63.11487452 -13.4172077 63.11487452 -16.7265625 65.09765625 Z " fill="#CA2952" transform="translate(50.7265625,37.90234375)"/>
<path d="M0 0 C4.95 0 9.9 0 15 0 C13.86634892 4.53460431 12.35806626 5.90024653 9 9 C10.98 9.66 12.96 10.32 15 11 C15 12.32 15 13.64 15 15 C10.05 15 5.1 15 0 15 C0 11 0 11 1.3125 9.296875 C1.869375 8.78640625 2.42625 8.2759375 3 7.75 C3.556875 7.22921875 4.11375 6.7084375 4.6875 6.171875 C5.120625 5.78515625 5.55375 5.3984375 6 5 C3.69 4.34 1.38 3.68 -1 3 C-0.67 2.01 -0.34 1.02 0 0 Z " fill="#CC3158" transform="translate(99,20)"/>
<path d="M0 0 C3.96 0 7.92 0 12 0 C12.33 1.32 12.66 2.64 13 4 C11.0625 6.25 11.0625 6.25 9 8 C10.32 8.66 11.64 9.32 13 10 C12.67 11.32 12.34 12.64 12 14 C8.04 14 4.08 14 0 14 C-0.33 12.68 -0.66 11.36 -1 10 C0.9375 7.75 0.9375 7.75 3 6 C1.68 5.34 0.36 4.68 -1 4 C-0.67 2.68 -0.34 1.36 0 0 Z " fill="#D03F63" transform="translate(83,34)"/>
<path d="M0 0 C3.63 0 7.26 0 11 0 C11.33 1.32 11.66 2.64 12 4 C11.01 4.66 10.02 5.32 9 6 C9.99 6.66 10.98 7.32 12 8 C12 8.99 12 9.98 12 11 C9.59454362 12.20272819 8.05003047 12.10071472 5.375 12.0625 C4.14910156 12.04896484 4.14910156 12.04896484 2.8984375 12.03515625 C1.95871094 12.01775391 1.95871094 12.01775391 1 12 C0.41015625 10.109375 0.41015625 10.109375 0 8 C1.4375 6.25 1.4375 6.25 3 5 C2.01 4.67 1.02 4.34 0 4 C0 2.68 0 1.36 0 0 Z " fill="#CD355B" transform="translate(95,51)"/>
<path d="M0 0 C0.66 0.33 1.32 0.66 2 1 C-0.31 3.31 -2.62 5.62 -5 8 C-5 5 -5 5 -2.5 2.3125 C-1.675 1.549375 -0.85 0.78625 0 0 Z " fill="#D4496D" transform="translate(66,51)"/>
</svg>
