<?xml version="1.0" encoding="UTF-8"?>
<svg version="1.1" xmlns="http://www.w3.org/2000/svg" width="150" height="150">
<path d="M0 0 C1.51013672 -0.0299707 1.51013672 -0.0299707 3.05078125 -0.06054688 C10.70846015 -0.05552874 15.27244904 1.20994904 20.8125 6.75 C24.22082709 12.17807647 24.7932335 17.75593251 24.8125 24.0625 C24.82925781 25.33351563 24.84601563 26.60453125 24.86328125 27.9140625 C24.45472545 31.87661442 24.1707968 33.48348408 21.5 36.4375 C18.22636859 37.18353451 14.99577721 37.06551633 11.65234375 36.99609375 C10.68470596 36.99376236 9.71706818 36.99143097 8.72010803 36.98902893 C6.67488793 36.97928542 4.62969509 36.95748449 2.5847168 36.92456055 C-0.55395218 36.87513461 -3.69105511 36.86308043 -6.83007812 36.85742188 C-8.81512092 36.84333703 -10.80015006 36.82713303 -12.78515625 36.80859375 C-13.7278688 36.80323105 -14.67058136 36.79786835 -15.64186096 36.79234314 C-16.51293991 36.77635574 -17.38401886 36.76036835 -18.28149414 36.74389648 C-19.43374229 36.72793678 -19.43374229 36.72793678 -20.60926819 36.71165466 C-22.5 36.4375 -22.5 36.4375 -24.5 34.4375 C-25.036976 30.75270558 -24.96326542 27.03187649 -25 23.3125 C-25.04125 22.2915625 -25.0825 21.270625 -25.125 20.21875 C-25.18970851 13.92584757 -24.47988791 9.78983295 -20.23828125 4.9987793 C-14.31811465 -0.31856135 -7.51252836 -0.05290513 0 0 Z M-15.5 10.4375 C-18.02775351 14.22913027 -17.72443035 17.24624031 -17.625 21.625 C-17.61597656 22.37458984 -17.60695313 23.12417969 -17.59765625 23.89648438 C-17.57412578 25.74362654 -17.53825561 27.59060412 -17.5 29.4375 C-16.84 29.4375 -16.18 29.4375 -15.5 29.4375 C-15.17 24.8175 -14.84 20.1975 -14.5 15.4375 C-13.18 15.7675 -11.86 16.0975 -10.5 16.4375 C-10.17 20.7275 -9.84 25.0175 -9.5 29.4375 C-3.23 29.4375 3.04 29.4375 9.5 29.4375 C9.83 25.1475 10.16 20.8575 10.5 16.4375 C11.82 16.1075 13.14 15.7775 14.5 15.4375 C14.995 22.3675 14.995 22.3675 15.5 29.4375 C15.83 29.4375 16.16 29.4375 16.5 29.4375 C16.63559675 26.87321485 16.73433188 24.31614784 16.8125 21.75 C16.8753418 20.6681543 16.8753418 20.6681543 16.93945312 19.56445312 C17.03396822 15.42469216 16.84444073 13.88628078 14.23046875 10.48046875 C9.5693196 6.99294227 5.37820257 7.22953658 -0.3125 7.1875 C-0.99892578 7.166875 -1.68535156 7.14625 -2.39257812 7.125 C-7.48053729 7.08649132 -10.99956401 8.02070376 -15.5 10.4375 Z " fill="#C7234C" transform="translate(75.5,93.5625)"/>
<path d="M0 0 C1.175625 -0.00708984 2.35125 -0.01417969 3.5625 -0.02148438 C11.63767537 0.03749162 17.54585232 0.88473488 24.375 5.4375 C24.045 7.0875 23.715 8.7375 23.375 10.4375 C21.625 11.0625 21.625 11.0625 19.375 11.4375 C18.53074463 10.96449463 18.53074463 10.96449463 17.66943359 10.48193359 C12.94637678 8.33198285 7.2864367 9.0657237 2.15820312 9.06689453 C0.0135112 9.06252751 -2.12911019 9.02620344 -4.2734375 8.98828125 C-5.64843052 8.98241095 -7.02343324 8.97844298 -8.3984375 8.9765625 C-9.64028809 8.96834473 -10.88213867 8.96012695 -12.16162109 8.95166016 C-16.283888 9.52992825 -18.41494418 10.83019419 -21.625 13.4375 C-25.06394119 19.19351031 -25.15475727 24.781354 -25.3125 31.375 C-25.34666016 32.34501953 -25.38082031 33.31503906 -25.41601562 34.31445312 C-25.49788574 36.68868637 -25.56723078 39.06257877 -25.625 41.4375 C-23.15 40.9425 -23.15 40.9425 -20.625 40.4375 C-20.64820313 39.17292969 -20.67140625 37.90835938 -20.6953125 36.60546875 C-20.71407126 34.9453184 -20.73227135 33.28516167 -20.75 31.625 C-20.76675781 30.79162109 -20.78351562 29.95824219 -20.80078125 29.09960938 C-20.80722656 28.29716797 -20.81367188 27.49472656 -20.8203125 26.66796875 C-20.83078613 25.92957764 -20.84125977 25.19118652 -20.85205078 24.43041992 C-20.625 22.4375 -20.625 22.4375 -18.625 19.4375 C-14.75 20.3125 -14.75 20.3125 -13.625 21.4375 C-13.53848389 22.85320123 -13.51795096 24.273095 -13.52734375 25.69140625 C-13.53056641 26.54541016 -13.53378906 27.39941406 -13.53710938 28.27929688 C-13.54548828 29.17712891 -13.55386719 30.07496094 -13.5625 31 C-13.56701172 31.90169922 -13.57152344 32.80339844 -13.57617188 33.73242188 C-13.58799775 35.96751314 -13.6044778 38.20247437 -13.625 40.4375 C-12.63757813 40.48648438 -11.65015625 40.53546875 -10.6328125 40.5859375 C-9.35148437 40.66070312 -8.07015625 40.73546875 -6.75 40.8125 C-5.47382812 40.88210937 -4.19765625 40.95171875 -2.8828125 41.0234375 C0.375 41.4375 0.375 41.4375 2.375 43.4375 C2 46.0625 2 46.0625 1.375 48.4375 C-2.82415307 48.53657258 -7.02268252 48.60906173 -11.22265625 48.65722656 C-12.65051121 48.67730982 -14.07828425 48.70458252 -15.50585938 48.73925781 C-17.56140368 48.78792669 -19.61585855 48.81049967 -21.671875 48.828125 C-23.52570801 48.8595459 -23.52570801 48.8595459 -25.41699219 48.89160156 C-28.625 48.4375 -28.625 48.4375 -31.02856445 46.77758789 C-33.02687217 43.84842756 -33.12748173 42.13468755 -33.12109375 38.60546875 C-33.12173828 37.47689453 -33.12238281 36.34832031 -33.12304688 35.18554688 C-33.10306641 34.01056641 -33.08308594 32.83558594 -33.0625 31.625 C-33.06958984 30.46162109 -33.07667969 29.29824219 -33.08398438 28.09960938 C-33.0185281 19.25294167 -31.76291237 12.73658321 -25.53466797 6.12915039 C-18.36143489 -0.22514928 -9.06944378 -0.15516157 0 0 Z " fill="#CA2B52" transform="translate(49.625,54.5625)"/>
<path d="M0 0 C0.92103516 -0.01224609 1.84207031 -0.02449219 2.79101562 -0.03710938 C9.65601252 -0.05172612 16.78477734 0.18472094 22.5625 4.375 C23.09359375 4.73980469 23.6246875 5.10460937 24.171875 5.48046875 C30.70823626 12.28139701 30.39869709 18.89096102 30.25 27.9375 C30.25708984 29.16855469 30.26417969 30.39960937 30.27148438 31.66796875 C30.2076978 40.62752942 30.2076978 40.62752942 28.53540039 42.99707031 C25.13182387 45.34875504 21.75442367 45.31514444 17.71484375 45.3203125 C16.26561523 45.32224609 16.26561523 45.32224609 14.78710938 45.32421875 C13.78486328 45.32035156 12.78261719 45.31648438 11.75 45.3125 C10.74388672 45.31636719 9.73777344 45.32023437 8.70117188 45.32421875 C7.73630859 45.32292969 6.77144531 45.32164063 5.77734375 45.3203125 C4.8968335 45.31918457 4.01632324 45.31805664 3.10913086 45.31689453 C0.8125 45.1875 0.8125 45.1875 -2.1875 44.1875 C-2.8125 41.8125 -2.8125 41.8125 -3.1875 39.1875 C-1.1875 37.1875 -1.1875 37.1875 2.2890625 36.9921875 C3.67202633 37.00362305 5.05488057 37.02958742 6.4375 37.0625 C10.088125 37.124375 10.088125 37.124375 13.8125 37.1875 C13.8125 31.2475 13.8125 25.3075 13.8125 19.1875 C15.4625 18.8575 17.1125 18.5275 18.8125 18.1875 C19.8125 19.1875 19.8125 19.1875 19.92602539 20.95336914 C19.92078857 21.70223389 19.91555176 22.45109863 19.91015625 23.22265625 C19.90693359 24.03154297 19.90371094 24.84042969 19.90039062 25.67382812 C19.88782227 26.9490332 19.88782227 26.9490332 19.875 28.25 C19.87048828 29.10400391 19.86597656 29.95800781 19.86132812 30.83789062 C19.84950373 32.95445663 19.83156769 35.07098685 19.8125 37.1875 C20.8025 37.1875 21.7925 37.1875 22.8125 37.1875 C22.73124075 33.95733274 22.61843395 30.72900112 22.5 27.5 C22.46616211 26.13198242 22.46616211 26.13198242 22.43164062 24.73632812 C22.19383496 17.94337256 22.19383496 17.94337256 18.8125 12.1875 C15.01789393 9.46352977 12.34912294 8.80555753 7.70703125 8.74609375 C6.55912109 8.71966797 5.41121094 8.69324219 4.22851562 8.66601562 C3.03935547 8.65248047 1.85019531 8.63894531 0.625 8.625 C-1.74363058 8.59067202 -4.11216103 8.54812981 -6.48046875 8.49609375 C-7.5274292 8.48376709 -8.57438965 8.47144043 -9.65307617 8.45874023 C-12.1875 8.1875 -12.1875 8.1875 -14.1875 6.1875 C-13.8125 3.5625 -13.8125 3.5625 -13.1875 1.1875 C-8.81609379 -0.2696354 -4.57907731 0.0031385 0 0 Z " fill="#CA2C54" transform="translate(104.1875,72.8125)"/>
<path d="M0 0 C4.99069099 2.4953455 8.73756107 5.75372846 10.79296875 11.0390625 C12.16279385 15.8708092 12.25124135 19.52216066 10.19140625 24.140625 C7.46489498 28.39577045 3.77048839 31.4098372 -1 33 C-5.61060212 33.53570806 -9.05331196 33.47334402 -13.25 31.375 C-18.11322152 27.17494505 -21.65989941 23.469026 -22.3125 16.8125 C-21.82475303 10.86198695 -19.76047794 6.67460097 -15.4375 2.5625 C-10.55555756 -0.56695028 -5.63644699 -0.63311105 0 0 Z M-12.859375 10.3046875 C-14.73631412 13.09438469 -14.69497772 15.62790865 -14.44921875 18.91015625 C-14.08555974 21.17826996 -14.08555974 21.17826996 -12.4375 23.5 C-9.18533206 25.50133412 -6.81267501 25.93311096 -3 26 C0.57387602 24.41161066 1.81089572 23.28365642 4 20 C4.46797583 15.78821757 4.46565795 13.71400886 2.125 10.125 C-0.3471253 7.6528747 -1.3037718 7.09494021 -4.75 6.625 C-8.22631857 7.02611368 -10.26765008 7.91757244 -12.859375 10.3046875 Z " fill="#C7224B" transform="translate(55,20)"/>
<path d="M0 0 C4.83858548 2.32968931 7.67031069 5.16141452 10 10 C10.80165291 15.0226009 10.59932381 18.80135239 8.3125 23.375 C4.9255929 27.21959725 2.61577681 29.58871136 -2.4375 30.875 C-7.69824797 31.05958765 -11.15310191 29.83903143 -15.25 26.625 C-18.30364597 23.71015612 -19.74252142 21.8143258 -20.3359375 17.6328125 C-20.42531743 11.89462069 -20.01244424 8.43480679 -16 4 C-11.06315928 -0.46666541 -6.39116001 -1.02008743 0 0 Z M-12 10 C-13.44430855 12.88861709 -13.37688506 14.79647701 -13 18 C-10.54405875 21.32274404 -9.0743356 22.77618008 -5 23.625 C-0.9256644 22.77618008 0.54405875 21.32274404 3 18 C3.55153827 14.62182812 3.3613395 12.7864448 1.9375 9.6875 C-2.63017491 5.7092025 -7.49964534 6.42618894 -12 10 Z " fill="#C7224B" transform="translate(110,41)"/>
<path d="M0 0 C3.3737101 2.05056357 6.22043124 4.44086248 8 8 C8.56645111 12.64304187 8.42123314 16.12513117 6.375 20.375 C2.97464693 24.13328497 0.0083757 25.70711188 -5 26.4375 C-9.63151798 25.76207029 -12.50245801 23.44590261 -15.8125 20.25 C-17.57299533 16.91432465 -18.22968353 13.73061738 -18 10 C-16.76129135 6.30586296 -14.73728771 3.65302626 -11.8125 1.0625 C-7.76813037 -0.46537297 -4.25460054 -0.92207213 0 0 Z M-8.75 8.125 C-10.55091729 10.82637593 -10.33742066 12.82824583 -10 16 C-8.05541686 18.3721969 -8.05541686 18.3721969 -4.5 18.3125 C-3.345 18.209375 -2.19 18.10625 -1 18 C1.14762184 14.77856724 1.561068 13.7404533 1 10 C-0.67316312 8.07845307 -0.67316312 8.07845307 -3 7 C-6.78595012 6.63949494 -6.78595012 6.63949494 -8.75 8.125 Z " fill="#C7224B" transform="translate(80,67)"/>
<path d="M0 0 C0.99 0.33 1.98 0.66 3 1 C2.21625 1.680625 1.4325 2.36125 0.625 3.0625 C-2.45850521 6.51308916 -3.04357515 8.56566662 -4 13 C-4.33 13 -4.66 13 -5 13 C-4.61271765 7.28758534 -4.12989477 4.26311718 0 0 Z " fill="#DF7792" transform="translate(67,69)"/>
<path d="M0 0 C0.66 0.33 1.32 0.66 2 1 C-0.64 3.64 -3.28 6.28 -6 9 C-6 6 -6 6 -3.5625 3.375 C-2.716875 2.59125 -1.87125 1.8075 -1 1 C-0.67 0.67 -0.34 0.34 0 0 Z " fill="#D95E7E" transform="translate(42,21)"/>
<path d="M0 0 C2 1 2 1 2 1 Z " fill="#FDF5F7" transform="translate(125,18)"/>
<path d="" fill="#FFFCFD" transform="translate(0,0)"/>
<path d="" fill="#FFFBFC" transform="translate(0,0)"/>
<path d="" fill="#FEFDFD" transform="translate(0,0)"/>
<path d="" fill="#FFF9FA" transform="translate(0,0)"/>
</svg>
