<?xml version="1.0" encoding="UTF-8"?>
<svg version="1.1" xmlns="http://www.w3.org/2000/svg" width="150" height="150">
<path d="M0 0 C0.89460938 -0.00128906 1.78921875 -0.00257812 2.7109375 -0.00390625 C3.65195313 -0.00003906 4.59296875 0.00382812 5.5625 0.0078125 C6.97402344 0.00201172 6.97402344 0.00201172 8.4140625 -0.00390625 C9.75597656 -0.00197266 9.75597656 -0.00197266 11.125 0 C11.95128906 0.00112793 12.77757813 0.00225586 13.62890625 0.00341797 C15.5625 0.1328125 15.5625 0.1328125 16.5625 1.1328125 C16.68074933 3.00807916 16.72987935 4.88774002 16.75195312 6.76660156 C16.76867065 7.97165344 16.78538818 9.17670532 16.8026123 10.41827393 C16.81618774 11.73172791 16.82976318 13.04518188 16.84375 14.3984375 C16.86178537 15.75267278 16.88038825 17.1069006 16.89953613 18.46112061 C16.95932603 22.76828915 17.0113697 27.07553366 17.0625 31.3828125 C17.12179398 36.36003493 17.18426623 41.3371797 17.25437927 46.31426239 C17.28086072 48.30664955 17.30166658 50.29910954 17.3223877 52.29156494 C17.33910522 53.50922546 17.35582275 54.72688599 17.37304688 55.98144531 C17.38557495 57.0509845 17.39810303 58.12052368 17.41101074 59.22247314 C17.51141977 62.50521913 17.51141977 62.50521913 18.5625 67.1328125 C-16.7475 67.1328125 -52.0575 67.1328125 -88.4375 67.1328125 C-88.1075 65.4828125 -87.7775 63.8328125 -87.4375 62.1328125 C-87.1075 62.1328125 -86.7775 62.1328125 -86.4375 62.1328125 C-86.1075 54.5428125 -85.7775 46.9528125 -85.4375 39.1328125 C-78.5075 39.1328125 -71.5775 39.1328125 -64.4375 39.1328125 C-63.2111243 41.58556391 -63.32334686 43.1833906 -63.33984375 45.921875 C-63.34306641 46.86289063 -63.34628906 47.80390625 -63.34960938 48.7734375 C-63.35798828 49.75828125 -63.36636719 50.743125 -63.375 51.7578125 C-63.37951172 52.75039062 -63.38402344 53.74296875 -63.38867188 54.765625 C-63.40047855 57.2214141 -63.416946 59.67708354 -63.4375 62.1328125 C-62.1175 62.1328125 -60.7975 62.1328125 -59.4375 62.1328125 C-59.44535522 60.46726318 -59.44535522 60.46726318 -59.45336914 58.76806641 C-59.47143985 54.65690921 -59.48293962 50.54575554 -59.49243164 46.43457031 C-59.49746711 44.65363983 -59.50429581 42.8727135 -59.51293945 41.09179688 C-59.52503942 38.53514585 -59.53073609 35.97854938 -59.53515625 33.421875 C-59.54031754 32.62286774 -59.54547882 31.82386047 -59.55079651 31.00064087 C-59.55137171 25.36055591 -59.55137171 25.36055591 -58.4375 23.1328125 C-55.14590684 23.07490897 -51.85444397 23.03924989 -48.5625 23.0078125 C-47.62535156 22.99105469 -46.68820313 22.97429687 -45.72265625 22.95703125 C-44.37880859 22.94736328 -44.37880859 22.94736328 -43.0078125 22.9375 C-42.18039551 22.92702637 -41.35297852 22.91655273 -40.50048828 22.90576172 C-38.4375 23.1328125 -38.4375 23.1328125 -36.4375 25.1328125 C-36.26224945 27.92966047 -36.20606811 30.6260933 -36.2421875 33.421875 C-36.2450174 34.24029877 -36.24784729 35.05872253 -36.25076294 35.90194702 C-36.26197468 38.52071643 -36.28708071 41.13914614 -36.3125 43.7578125 C-36.32252853 45.53124507 -36.3316546 47.30468299 -36.33984375 49.078125 C-36.36191722 53.42981876 -36.39645356 57.781258 -36.4375 62.1328125 C-35.1175 62.1328125 -33.7975 62.1328125 -32.4375 62.1328125 C-32.43972061 61.5086293 -32.44194122 60.88444611 -32.44422913 60.24134827 C-32.4662808 53.76938446 -32.4814061 47.29743125 -32.49243164 40.82543945 C-32.49747349 38.40714078 -32.50430678 35.98884517 -32.51293945 33.57055664 C-32.52501157 30.10301967 -32.53072963 26.63552284 -32.53515625 23.16796875 C-32.54031754 22.07944107 -32.54547882 20.99091339 -32.55079651 19.86940002 C-32.55087204 18.86843796 -32.55094757 17.86747589 -32.55102539 16.83618164 C-32.553246 15.95015762 -32.55546661 15.06413361 -32.55775452 14.15126038 C-32.4375 12.1328125 -32.4375 12.1328125 -31.4375 11.1328125 C-29.96097336 11.03400453 -28.47982764 11.00202005 -27 11 C-26.10539062 10.99871094 -25.21078125 10.99742188 -24.2890625 10.99609375 C-23.34804687 10.99996094 -22.40703125 11.00382812 -21.4375 11.0078125 C-20.02597656 11.00201172 -20.02597656 11.00201172 -18.5859375 10.99609375 C-17.24402344 10.99802734 -17.24402344 10.99802734 -15.875 11 C-15.04871094 11.00112793 -14.22242187 11.00225586 -13.37109375 11.00341797 C-11.4375 11.1328125 -11.4375 11.1328125 -10.4375 12.1328125 C-10.31486612 13.69729633 -10.25970478 15.26714022 -10.23217773 16.83618164 C-10.2022599 18.33762474 -10.2022599 18.33762474 -10.17173767 19.86940002 C-10.15502518 20.9579277 -10.13831268 22.04645538 -10.12109375 23.16796875 C-10.10031265 24.27635605 -10.07953156 25.38474335 -10.05812073 26.52671814 C-9.99250377 30.08285058 -9.93368404 33.63905953 -9.875 37.1953125 C-9.83182632 39.59961743 -9.78821242 42.00391449 -9.74414062 44.40820312 C-9.63681008 50.31632435 -9.53506669 56.22452241 -9.4375 62.1328125 C-8.1175 62.1328125 -6.7975 62.1328125 -5.4375 62.1328125 C-5.43972061 61.37082047 -5.44194122 60.60882843 -5.44422913 59.82374573 C-5.46423157 52.65729538 -5.47947388 45.49085849 -5.48931217 38.32438755 C-5.49454008 34.63966752 -5.50163605 30.95497047 -5.51293945 27.27026367 C-5.52377162 23.71710419 -5.52977753 20.16396687 -5.53237724 16.61079216 C-5.5342309 15.25235584 -5.53785038 13.89392079 -5.54323006 12.53549385 C-5.55044475 10.63899027 -5.55090809 8.74246457 -5.55102539 6.84594727 C-5.553246 5.76450943 -5.55546661 4.68307159 -5.55775452 3.56886292 C-5.35246974 -0.58968412 -3.71461708 0.00507066 0 0 Z M-0.4375 5.1328125 C-0.4375 23.9428125 -0.4375 42.7528125 -0.4375 62.1328125 C3.5225 62.4628125 7.4825 62.7928125 11.5625 63.1328125 C11.5625 43.9928125 11.5625 24.8528125 11.5625 5.1328125 C7.6025 5.1328125 3.6425 5.1328125 -0.4375 5.1328125 Z M-27.4375 16.1328125 C-27.4375 31.6428125 -27.4375 47.1528125 -27.4375 63.1328125 C-21.4975 62.6378125 -21.4975 62.6378125 -15.4375 62.1328125 C-15.4375 46.9528125 -15.4375 31.7728125 -15.4375 16.1328125 C-19.3975 16.1328125 -23.3575 16.1328125 -27.4375 16.1328125 Z M-53.4375 28.1328125 C-53.4375 39.3528125 -53.4375 50.5728125 -53.4375 62.1328125 C-49.8075 62.1328125 -46.1775 62.1328125 -42.4375 62.1328125 C-42.4375 50.9128125 -42.4375 39.6928125 -42.4375 28.1328125 C-46.0675 28.1328125 -49.6975 28.1328125 -53.4375 28.1328125 Z M-80.4375 44.1328125 C-80.4375 50.0728125 -80.4375 56.0128125 -80.4375 62.1328125 C-76.8075 62.1328125 -73.1775 62.1328125 -69.4375 62.1328125 C-69.4375 56.1928125 -69.4375 50.2528125 -69.4375 44.1328125 C-73.0675 44.1328125 -76.6975 44.1328125 -80.4375 44.1328125 Z " fill="#CB2E56" transform="translate(109.4375,60.8671875)"/>
<path d="M0 0 C2.81256281 -0.02684312 5.62487241 -0.04676188 8.4375 -0.0625 C9.23994141 -0.07087891 10.04238281 -0.07925781 10.86914062 -0.08789062 C12.91295221 -0.0965143 14.95683902 -0.0522815 17 0 C18 1 18 1 18.09765625 4.59765625 C18.0909822 6.08596867 18.07902183 7.57426432 18.0625 9.0625 C18.05798828 9.82111328 18.05347656 10.57972656 18.04882812 11.36132812 C18.0370068 13.24091871 18.01907078 15.12046899 18 17 C13.25 18 13.25 18 11 18 C9.515 18.495 9.515 18.495 8 19 C8 19.66 8 20.32 8 21 C7.34 21 6.68 21 6 21 C6 21.66 6 22.32 6 23 C5.34 23 4.68 23 4 23 C4 23.66 4 24.32 4 25 C2.625 26.625 2.625 26.625 1 28 C0.34 28 -0.32 28 -1 28 C-1 28.66 -1 29.32 -1 30 C-1.66 30 -2.32 30 -3 30 C-3 30.66 -3 31.32 -3 32 C-5.375 34.625 -5.375 34.625 -8 37 C-8.66 37 -9.32 37 -10 37 C-10 37.66 -10 38.32 -10 39 C-12.125 39.375 -12.125 39.375 -15 39 C-17.23913252 37.20659643 -19.12454539 35.16547337 -21 33 C-21.61875 33.66 -22.2375 34.32 -22.875 35 C-25 37 -25 37 -27 37 C-27 37.66 -27 38.32 -27 39 C-27.66 39 -28.32 39 -29 39 C-29.66 40.32 -30.32 41.64 -31 43 C-31.66 43 -32.32 43 -33 43 C-33.23847656 43.56332031 -33.47695313 44.12664062 -33.72265625 44.70703125 C-35.27791771 47.49889204 -37.17204424 49.43692408 -39.4375 51.6875 C-40.21996094 52.47511719 -41.00242187 53.26273438 -41.80859375 54.07421875 C-44 56 -44 56 -47 57 C-49.0078125 55.70703125 -49.0078125 55.70703125 -51.125 53.8125 C-51.82882813 53.20019531 -52.53265625 52.58789062 -53.2578125 51.95703125 C-55.15647582 49.82422783 -55.71316409 48.81205215 -56 46 C-54.90109253 44.25944519 -54.90109253 44.25944519 -53.16357422 42.50073242 C-52.51895233 41.83712204 -51.87433044 41.17351166 -51.21017456 40.48979187 C-50.49886383 39.78546524 -49.7875531 39.08113861 -49.0546875 38.35546875 C-47.97164841 37.2616967 -47.97164841 37.2616967 -46.86672974 36.14582825 C-45.33439752 34.60570276 -43.79560992 33.07197751 -42.25097656 31.54418945 C-39.88598919 29.19839999 -37.55173661 26.82483317 -35.21875 24.44726562 C-33.72833441 22.95655966 -32.23620202 21.46756778 -30.7421875 19.98046875 C-30.04302216 19.26602097 -29.34385681 18.55157318 -28.62350464 17.81547546 C-27.95996979 17.16762589 -27.29643494 16.51977631 -26.61279297 15.85229492 C-26.03463837 15.27589767 -25.45648376 14.69950043 -24.86080933 14.1056366 C-23 13 -23 13 -20.38674927 13.24726868 C-16.75680293 14.39207863 -14.80117644 16.45939812 -12 19 C-11.38125 18.175 -10.7625 17.35 -10.125 16.5 C-9.42375 15.675 -8.7225 14.85 -8 14 C-7.34 14 -6.68 14 -6 14 C-6 13.34 -6 12.68 -6 12 C-3.625 9.375 -3.625 9.375 -1 7 C-0.34 7 0.32 7 1 7 C0.34 6.01 -0.32 5.02 -1 4 C-0.625 1.8125 -0.625 1.8125 0 0 Z M6.46484375 6.36328125 C5.96082031 7.00652344 5.45679688 7.64976563 4.9375 8.3125 C1.40865474 12.6195404 -2.42820772 16.47146489 -6.44360352 20.31762695 C-7.66510623 21.50922752 -8.83723036 22.75102139 -10 24 C-10 24.66 -10 25.32 -10 26 C-11.65 26 -13.3 26 -15 26 C-15.268125 25.360625 -15.53625 24.72125 -15.8125 24.0625 C-16.88667752 21.66868314 -16.88667752 21.66868314 -20 21 C-20 20.34 -20 19.68 -20 19 C-20.66 19 -21.32 19 -22 19 C-22 19.66 -22 20.32 -22 21 C-22.66 21 -23.32 21 -24 21 C-24 21.66 -24 22.32 -24 23 C-24.99 23.33 -25.98 23.66 -27 24 C-27 24.66 -27 25.32 -27 26 C-27.66 26 -28.32 26 -29 26 C-29 26.66 -29 27.32 -29 28 C-29.66 28 -30.32 28 -31 28 C-31 28.66 -31 29.32 -31 30 C-31.639375 30.268125 -32.27875 30.53625 -32.9375 30.8125 C-35.33131686 31.88667752 -35.33131686 31.88667752 -36 35 C-36.66 35 -37.32 35 -38 35 C-38 35.66 -38 36.32 -38 37 C-38.639375 37.268125 -39.27875 37.53625 -39.9375 37.8125 C-42.33131686 38.88667752 -42.33131686 38.88667752 -43 42 C-43.66 42 -44.32 42 -45 42 C-45 42.66 -45 43.32 -45 44 C-46.32 44.66 -47.64 45.32 -49 46 C-48.34 47.32 -47.68 48.64 -47 50 C-43.03242825 46.7285853 -39.32734934 43.3790073 -35.7734375 39.66015625 C-34.690625 38.5319043 -34.690625 38.5319043 -33.5859375 37.38085938 C-32.0945737 35.81703532 -30.61297101 34.24385173 -29.140625 32.66210938 C-28.42132813 31.91896484 -27.70203125 31.17582031 -26.9609375 30.41015625 C-26.31946777 29.73090088 -25.67799805 29.05164551 -25.01708984 28.35180664 C-23 27 -23 27 -20.36499023 27.21240234 C-16.7705819 28.40942529 -14.79028333 30.46927791 -12 33 C-10.62437146 31.71034824 -9.29233607 30.37310707 -8 29 C-8 28.34 -8 27.68 -8 27 C-7.11465576 26.60470093 -7.11465576 26.60470093 -6.21142578 26.20141602 C-3.90839473 24.95023299 -2.43638558 23.65195022 -0.6171875 21.77734375 C-0.00746094 21.15666016 0.60226563 20.53597656 1.23046875 19.89648438 C1.85566406 19.25001953 2.48085937 18.60355469 3.125 17.9375 C4.37536074 16.6527607 5.62786516 15.37010319 6.8828125 14.08984375 C7.43340332 13.52128662 7.98399414 12.95272949 8.55126953 12.36694336 C10 11 10 11 12 10 C12 8.35 12 6.7 12 5 C8.15629859 4.55732701 8.15629859 4.55732701 6.46484375 6.36328125 Z " fill="#CD365C" transform="translate(83,29)"/>
<path d="M0 0 C0 0.99 0 1.98 0 3 C2.475 3.99 2.475 3.99 5 5 C4.67 6.65 4.34 8.3 4 10 C2.68 9.67 1.36 9.34 0 9 C0 10.98 0 12.96 0 15 C0.78375 15.268125 1.5675 15.53625 2.375 15.8125 C5 17 5 17 7 20 C7.67343977 27.07111756 7.67343977 27.07111756 5.1875 30.5 C3 32 3 32 0 32 C-0.495 34.475 -0.495 34.475 -1 37 C-2.32 36.67 -3.64 36.34 -5 36 C-5 35.01 -5 34.02 -5 33 C-5.969375 32.7525 -6.93875 32.505 -7.9375 32.25 C-8.948125 31.8375 -9.95875 31.425 -11 31 C-11.875 28.875 -11.875 28.875 -12 27 C-7.25 25.875 -7.25 25.875 -5 27 C-5 24.03 -5 21.06 -5 18 C-6.32 17.67 -7.64 17.34 -9 17 C-10.83926156 14.63523513 -11 13.18526849 -11 10.1875 C-9.18526835 4.40304287 -6.28372099 0 0 0 Z M0 21 C0 22.98 0 24.96 0 27 C0.66 26.34 1.32 25.68 2 25 C1.6814823 22.89179203 1.6814823 22.89179203 1 21 C0.67 21 0.34 21 0 21 Z " fill="#CC335A" transform="translate(117,21)"/>
</svg>
