<?xml version="1.0" encoding="UTF-8"?>
<svg version="1.1" xmlns="http://www.w3.org/2000/svg" width="150" height="150">
<path d="M0 0 C1.2375 -0.0299707 1.2375 -0.0299707 2.5 -0.06054688 C8.35038639 -0.05590371 11.85980786 0.99701872 16.625 4.4375 C16.975625 5.324375 17.32625 6.21125 17.6875 7.125 C17.996875 7.888125 18.30625 8.65125 18.625 9.4375 C21.60480236 10.18414647 21.60480236 10.18414647 24.625 10.4375 C26.625 12.4375 26.625 12.4375 27.0625 15.375 C26.918125 16.385625 26.77375 17.39625 26.625 18.4375 C25.820625 18.829375 25.01625 19.22125 24.1875 19.625 C21.37455104 21.16571142 21.37455104 21.16571142 21.17578125 23.921875 C21.06034707 25.86116916 20.98736671 27.80354687 20.9609375 29.74609375 C20.5769344 32.82258373 19.6643671 34.1553511 17.625 36.4375 C18.11097656 36.96988281 18.59695312 37.50226562 19.09765625 38.05078125 C21.02757959 41.06659496 20.99022337 43.06643897 21.0625 46.625 C21.33886983 51.99618754 22.36515809 55.62462044 24.7578125 60.375 C26.24961552 63.92307206 26.07707489 66.62715452 25.625 70.4375 C24.65227325 71.79085895 23.6510734 73.12412604 22.625 74.4375 C22.47592456 75.78746095 22.37651651 77.14334236 22.3125 78.5 C22.085625 79.799375 21.85875 81.09875 21.625 82.4375 C19.645 83.4275 17.665 84.4175 15.625 85.4375 C15.625 91.3775 15.625 97.3175 15.625 103.4375 C5.065 103.4375 -5.495 103.4375 -16.375 103.4375 C-16.375 97.4975 -16.375 91.5575 -16.375 85.4375 C-18.025 84.7775 -19.675 84.1175 -21.375 83.4375 C-22.98225635 80.22298731 -22.43248185 77.00137464 -22.375 73.4375 C-23.365 73.1075 -24.355 72.7775 -25.375 72.4375 C-25.77085017 65.22423022 -26.05668166 59.67242239 -22.26171875 53.4140625 C-20.82156983 50.20386271 -21.13128348 47.09283578 -21.33203125 43.63671875 C-21.375 41.4375 -21.375 41.4375 -20.375 38.4375 C-19.715 37.7775 -19.055 37.1175 -18.375 36.4375 C-18.86226562 35.74011719 -19.34953125 35.04273438 -19.8515625 34.32421875 C-23.21382196 27.95316813 -21.97057814 19.70123968 -20.125 12.9375 C-18.47011855 8.16618292 -16.33218855 4.96888799 -12.328125 1.8359375 C-8.18364669 -0.12665937 -4.52931942 -0.03856232 0 0 Z M-13.375 8.4375 C-14.87799506 10.72035098 -16.375 13.65484531 -16.375 16.4375 C-14.43940687 16.57254138 -12.501128 16.66951129 -10.5625 16.75 C-8.94408203 16.83701172 -8.94408203 16.83701172 -7.29296875 16.92578125 C-4.16534356 16.75506369 -4.16534356 16.75506369 -2.61328125 13.98046875 C-2.20464844 13.14128906 -1.79601563 12.30210938 -1.375 11.4375 C1.45769666 10.02115167 4.09966438 10.0911995 7.25 9.875 C9.03277344 9.74931641 9.03277344 9.74931641 10.8515625 9.62109375 C11.76679687 9.56050781 12.68203125 9.49992187 13.625 9.4375 C11.35084713 6.06661733 11.35084713 6.06661733 7.625 4.4375 C5.19137528 4.26508292 2.75179404 4.17084232 0.3125 4.125 C-1.63076172 4.06892578 -1.63076172 4.06892578 -3.61328125 4.01171875 C-7.97542123 4.50546045 -10.03414912 5.63613467 -13.375 8.4375 Z M0.625 14.4375 C0.295 15.0975 -0.035 15.7575 -0.375 16.4375 C7.215 16.4375 14.805 16.4375 22.625 16.4375 C22.625 15.7775 22.625 15.1175 22.625 14.4375 C15.365 14.4375 8.105 14.4375 0.625 14.4375 Z M-16.375 21.4375 C-16.375 22.0975 -16.375 22.7575 -16.375 23.4375 C-15.715 23.4375 -15.055 23.4375 -14.375 23.4375 C-14.375 22.7775 -14.375 22.1175 -14.375 21.4375 C-15.035 21.4375 -15.695 21.4375 -16.375 21.4375 Z M-10.375 21.4375 C-10.271875 24.20125 -10.16875 26.965 -10.0625 29.8125 C-10.03760498 30.68181152 -10.01270996 31.55112305 -9.98706055 32.44677734 C-9.89018305 34.45174087 -9.63521732 36.44713547 -9.375 38.4375 C-5.91267506 40.74571663 -4.45701684 40.70750989 -0.375 40.6875 C0.676875 40.69265625 1.72875 40.6978125 2.8125 40.703125 C5.83150379 40.64217017 5.83150379 40.64217017 8.625 38.4375 C9.01088788 35.48589957 9.22778493 32.77067348 9.3125 29.8125 C9.415625 27.04875 9.51875 24.285 9.625 21.4375 C3.025 21.4375 -3.575 21.4375 -10.375 21.4375 Z M13.625 21.4375 C13.625 22.0975 13.625 22.7575 13.625 23.4375 C14.285 23.4375 14.945 23.4375 15.625 23.4375 C15.625 22.7775 15.625 22.1175 15.625 21.4375 C14.965 21.4375 14.305 21.4375 13.625 21.4375 Z M13.625 27.4375 C13.625 29.4175 13.625 31.3975 13.625 33.4375 C14.285 33.1075 14.945 32.7775 15.625 32.4375 C15.295 30.7875 14.965 29.1375 14.625 27.4375 C14.295 27.4375 13.965 27.4375 13.625 27.4375 Z M-16.375 28.4375 C-16.045 30.0875 -15.715 31.7375 -15.375 33.4375 C-15.045 33.4375 -14.715 33.4375 -14.375 33.4375 C-14.375 31.7875 -14.375 30.1375 -14.375 28.4375 C-15.035 28.4375 -15.695 28.4375 -16.375 28.4375 Z M-16.375 41.4375 C-16.375 43.7475 -16.375 46.0575 -16.375 48.4375 C-13.735 47.4475 -11.095 46.4575 -8.375 45.4375 C-8.375 44.7775 -8.375 44.1175 -8.375 43.4375 C-11.60291555 41.2855563 -12.65900809 41.23663557 -16.375 41.4375 Z M7.625 43.4375 C7.625 44.0975 7.625 44.7575 7.625 45.4375 C10.265 46.4275 12.905 47.4175 15.625 48.4375 C15.625 46.1275 15.625 43.8175 15.625 41.4375 C11.90900809 41.23663557 10.85291555 41.2855563 7.625 43.4375 Z M-4.375 44.4375 C-4.045 46.0875 -3.715 47.7375 -3.375 49.4375 C-1.52774948 50.12909401 -1.52774948 50.12909401 0.625 50.4375 C1.615 49.7775 2.605 49.1175 3.625 48.4375 C3.625 47.1175 3.625 45.7975 3.625 44.4375 C0.985 44.4375 -1.655 44.4375 -4.375 44.4375 Z M8.625 49.4375 C8.625 58.3475 8.625 67.2575 8.625 76.4375 C9.285 76.4375 9.945 76.4375 10.625 76.4375 C10.625 67.8575 10.625 59.2775 10.625 50.4375 C9.965 50.1075 9.305 49.7775 8.625 49.4375 Z M-11.375 50.4375 C-11.375 59.0175 -11.375 67.5975 -11.375 76.4375 C-10.715 76.4375 -10.055 76.4375 -9.375 76.4375 C-9.375 67.8575 -9.375 59.2775 -9.375 50.4375 C-10.035 50.4375 -10.695 50.4375 -11.375 50.4375 Z M-5.375 53.4375 C-5.375 61.0275 -5.375 68.6175 -5.375 76.4375 C-2.075 76.4375 1.225 76.4375 4.625 76.4375 C4.625 68.8475 4.625 61.2575 4.625 53.4375 C1.325 53.4375 -1.975 53.4375 -5.375 53.4375 Z M14.625 53.4375 C14.955 59.0475 15.285 64.6575 15.625 70.4375 C17.275 70.4375 18.925 70.4375 20.625 70.4375 C21.13104984 63.45120081 20.6583905 59.23549884 16.625 53.4375 C15.965 53.4375 15.305 53.4375 14.625 53.4375 Z M-17.375 54.4375 C-20.54407066 58.26679371 -21.508983 61.19267311 -21.4375 66.125 C-21.42847656 66.93324219 -21.41945313 67.74148437 -21.41015625 68.57421875 C-21.39855469 69.18910156 -21.38695312 69.80398437 -21.375 70.4375 C-19.395 70.4375 -17.415 70.4375 -15.375 70.4375 C-15.705 65.1575 -16.035 59.8775 -16.375 54.4375 C-16.705 54.4375 -17.035 54.4375 -17.375 54.4375 Z M-18.375 74.4375 C-18.375 76.0875 -18.375 77.7375 -18.375 79.4375 C-17.385 79.4375 -16.395 79.4375 -15.375 79.4375 C-15.375 77.7875 -15.375 76.1375 -15.375 74.4375 C-16.365 74.4375 -17.355 74.4375 -18.375 74.4375 Z M14.625 74.4375 C14.955 76.4175 15.285 78.3975 15.625 80.4375 C16.285 80.1075 16.945 79.7775 17.625 79.4375 C17.625 77.7875 17.625 76.1375 17.625 74.4375 C16.635 74.4375 15.645 74.4375 14.625 74.4375 Z M-11.375 81.4375 C-11.375 87.7075 -11.375 93.9775 -11.375 100.4375 C-8.405 100.4375 -5.435 100.4375 -2.375 100.4375 C-2.31892578 99.06464844 -2.31892578 99.06464844 -2.26171875 97.6640625 C-2.19597656 96.47554687 -2.13023438 95.28703125 -2.0625 94.0625 C-2.00449219 92.87914063 -1.94648437 91.69578125 -1.88671875 90.4765625 C-1.71785156 89.47367188 -1.54898438 88.47078125 -1.375 87.4375 C1.625 85.4375 1.625 85.4375 3.8125 85.8125 C4.410625 86.01875 5.00875 86.225 5.625 86.4375 C4.965 86.89125 4.305 87.345 3.625 87.8125 C0.6098988 91.76982033 1.29454483 95.62754145 1.625 100.4375 C4.595 100.4375 7.565 100.4375 10.625 100.4375 C10.625 94.1675 10.625 87.8975 10.625 81.4375 C3.365 81.4375 -3.895 81.4375 -11.375 81.4375 Z " fill="#CF3D62" transform="translate(49.375,23.5625)"/>
<path d="M0 0 C4.14365815 2.22410159 6.97337179 5.53428141 9.62890625 9.31640625 C9.62890625 10.30640625 9.62890625 11.29640625 9.62890625 12.31640625 C10.94890625 12.64640625 12.26890625 12.97640625 13.62890625 13.31640625 C14.31640625 16.62890625 14.31640625 16.62890625 14.62890625 20.31640625 C14.14808594 20.74824219 13.66726562 21.18007813 13.171875 21.625 C10.18091087 24.90370245 11.24697677 29.66898034 11.3203125 33.875 C11.58286854 36.80299841 11.87951372 38.57162266 13.19140625 41.12890625 C14.94948463 45.02725397 14.5679138 47.37508805 13.85546875 51.49609375 C13.78070313 52.09679687 13.7059375 52.6975 13.62890625 53.31640625 C13.95890625 53.64640625 14.28890625 53.97640625 14.62890625 54.31640625 C14.72837078 56.08499818 14.75970842 57.85752076 14.76171875 59.62890625 C14.76365234 61.24152344 14.76365234 61.24152344 14.765625 62.88671875 C14.76175781 64.01851563 14.75789063 65.1503125 14.75390625 66.31640625 C14.75970703 68.01410156 14.75970703 68.01410156 14.765625 69.74609375 C14.76433594 70.82117188 14.76304688 71.89625 14.76171875 73.00390625 C14.76059082 73.99777344 14.75946289 74.99164063 14.75830078 76.015625 C14.62890625 78.31640625 14.62890625 78.31640625 13.62890625 79.31640625 C13.13772277 81.5981768 12.7300359 83.88909924 12.32421875 86.1875 C11.62890625 88.31640625 11.62890625 88.31640625 8.62890625 90.31640625 C9.12390625 96.25640625 9.12390625 96.25640625 9.62890625 102.31640625 C-2.91109375 102.31640625 -15.45109375 102.31640625 -28.37109375 102.31640625 C-28.37109375 98.35640625 -28.37109375 94.39640625 -28.37109375 90.31640625 C-29.69109375 88.99640625 -31.01109375 87.67640625 -32.37109375 86.31640625 C-32.77838603 83.99484028 -33.11548052 81.65952755 -33.37109375 79.31640625 C-34.03109375 78.32640625 -34.69109375 77.33640625 -35.37109375 76.31640625 C-35.62988281 74.40283203 -35.62988281 74.40283203 -35.63671875 72.26171875 C-35.63929687 71.48183594 -35.641875 70.70195313 -35.64453125 69.8984375 C-35.63679688 69.08761719 -35.6290625 68.27679688 -35.62109375 67.44140625 C-35.62882812 66.63832031 -35.6365625 65.83523437 -35.64453125 65.0078125 C-35.62985603 60.55388279 -35.13153005 57.44504852 -33.37109375 53.31640625 C-33.20439604 50.32428511 -33.20439604 50.32428511 -33.37109375 47.25390625 C-33.59335282 41.74604877 -33.59335282 41.74604877 -32.37890625 39.3984375 C-30.87556008 36.29268746 -31.1827791 33.4853974 -31.24609375 30.06640625 C-31.27316406 28.17148437 -31.27316406 28.17148437 -31.30078125 26.23828125 C-31.32398437 25.2740625 -31.3471875 24.30984375 -31.37109375 23.31640625 C-32.03109375 22.98640625 -32.69109375 22.65640625 -33.37109375 22.31640625 C-33.37109375 19.34640625 -33.37109375 16.37640625 -33.37109375 13.31640625 C-32.05109375 12.98640625 -30.73109375 12.65640625 -29.37109375 12.31640625 C-29.12359375 11.42953125 -28.87609375 10.54265625 -28.62109375 9.62890625 C-24.43416318 -1.46645977 -10.11016816 -2.91479313 0 0 Z M-23.37109375 8.31640625 C-24.03109375 9.63640625 -24.69109375 10.95640625 -25.37109375 12.31640625 C-15.14109375 12.31640625 -4.91109375 12.31640625 5.62890625 12.31640625 C2.74004384 7.50163557 0.82706521 5.09000677 -4.37109375 3.31640625 C-11.70684534 2.13568915 -17.86570575 3.07317958 -23.37109375 8.31640625 Z M-29.37109375 16.31640625 C-29.37109375 16.97640625 -29.37109375 17.63640625 -29.37109375 18.31640625 C-16.50109375 18.31640625 -3.63109375 18.31640625 9.62890625 18.31640625 C9.62890625 17.65640625 9.62890625 16.99640625 9.62890625 16.31640625 C-3.24109375 16.31640625 -16.11109375 16.31640625 -29.37109375 16.31640625 Z M-26.37109375 23.31640625 C-26.42007813 24.425 -26.4690625 25.53359375 -26.51953125 26.67578125 C-26.5945859 28.1393469 -26.67013256 29.60288737 -26.74609375 31.06640625 C-26.77703125 31.79601563 -26.80796875 32.525625 -26.83984375 33.27734375 C-27.05176737 37.16261004 -27.55081454 39.91263212 -29.37109375 43.31640625 C-29.37109375 44.96640625 -29.37109375 46.61640625 -29.37109375 48.31640625 C-25.41109375 46.66640625 -21.45109375 45.01640625 -17.37109375 43.31640625 C-18.58345703 42.32060547 -18.58345703 42.32060547 -19.8203125 41.3046875 C-22.89016737 37.70830315 -23.14457332 35.0346121 -23.18359375 30.50390625 C-23.20873047 29.81103516 -23.23386719 29.11816406 -23.25976562 28.40429688 C-23.31822638 26.70893503 -23.34762422 25.01261338 -23.37109375 23.31640625 C-24.36109375 23.31640625 -25.35109375 23.31640625 -26.37109375 23.31640625 Z M-19.37109375 23.31640625 C-19.45359375 25.39953125 -19.53609375 27.48265625 -19.62109375 29.62890625 C-19.6675 30.80066406 -19.71390625 31.97242188 -19.76171875 33.1796875 C-19.6663037 36.33872201 -19.6663037 36.33872201 -17.703125 38.21875 C-14.8816611 39.54677572 -12.91747497 39.65100166 -9.80859375 39.56640625 C-8.85855469 39.5509375 -7.90851563 39.53546875 -6.9296875 39.51953125 C-4.25152262 39.40996967 -4.25152262 39.40996967 -1.37109375 38.31640625 C0.07098566 35.43224742 -0.27714488 32.89919097 -0.30859375 29.69140625 C-0.32921875 27.58765625 -0.34984375 25.48390625 -0.37109375 23.31640625 C-6.64109375 23.31640625 -12.91109375 23.31640625 -19.37109375 23.31640625 Z M3.62890625 23.31640625 C3.65210938 24.12464844 3.6753125 24.93289062 3.69921875 25.765625 C3.71726562 26.83425781 3.7353125 27.90289062 3.75390625 29.00390625 C3.77710938 30.05964844 3.8003125 31.11539063 3.82421875 32.203125 C3.62165822 35.43193978 3.16574521 37.47953686 1.62890625 40.31640625 C-0.49609375 42.12890625 -0.49609375 42.12890625 -2.37109375 43.31640625 C-1.67242187 43.59355469 -0.97375 43.87070313 -0.25390625 44.15625 C0.65617187 44.51847656 1.56625 44.88070312 2.50390625 45.25390625 C3.40882812 45.61355469 4.31375 45.97320312 5.24609375 46.34375 C7.62890625 47.31640625 7.62890625 47.31640625 9.62890625 48.31640625 C9.86318938 43.52667415 9.86318938 43.52667415 7.62890625 39.31640625 C7.32824471 36.56223307 7.11965326 33.88995478 7.00390625 31.12890625 C6.96523437 30.37931641 6.9265625 29.62972656 6.88671875 28.85742188 C6.79262409 27.01081426 6.70968306 25.16364435 6.62890625 23.31640625 C5.63890625 23.31640625 4.64890625 23.31640625 3.62890625 23.31640625 Z M-13.37109375 43.31640625 C-14.03109375 44.63640625 -14.69109375 45.95640625 -15.37109375 47.31640625 C-12.68624605 49.07188359 -11.4510716 49.32267902 -8.18359375 49.06640625 C-6.79140625 48.69515625 -6.79140625 48.69515625 -5.37109375 48.31640625 C-5.04109375 47.65640625 -4.71109375 46.99640625 -4.37109375 46.31640625 C-5.03109375 45.32640625 -5.69109375 44.33640625 -6.37109375 43.31640625 C-9.95466616 43.06624752 -9.95466616 43.06624752 -13.37109375 43.31640625 Z M-27.8984375 52.63671875 C-31.78115883 57.06528685 -31.63693163 62.60122592 -31.49609375 68.19140625 C-31.48255859 69.22394531 -31.48255859 69.22394531 -31.46875 70.27734375 C-31.44541888 71.95718463 -31.40955701 73.63684371 -31.37109375 75.31640625 C-28.73109375 75.31640625 -26.09109375 75.31640625 -23.37109375 75.31640625 C-23.53351563 74.60742188 -23.6959375 73.8984375 -23.86328125 73.16796875 C-24.37771417 70.27923005 -24.50416874 67.62262873 -24.49609375 64.69140625 C-24.49867187 63.75039062 -24.50125 62.809375 -24.50390625 61.83984375 C-24.37109375 59.31640625 -24.37109375 59.31640625 -23.37109375 56.31640625 C-21.30859375 55.62890625 -21.30859375 55.62890625 -19.37109375 55.31640625 C-20.85609375 52.34640625 -20.85609375 52.34640625 -22.37109375 49.31640625 C-24.58643781 49.31640625 -26.19410707 51.35533027 -27.8984375 52.63671875 Z M2.62890625 49.31640625 C1.14390625 52.78140625 1.14390625 52.78140625 -0.37109375 56.31640625 C1.27890625 55.98640625 2.92890625 55.65640625 4.62890625 55.31640625 C4.65602976 57.71231663 4.67580445 60.10791582 4.69140625 62.50390625 C4.69978516 63.17744141 4.70816406 63.85097656 4.71679688 64.54492188 C4.73497163 68.27074756 4.52190017 71.69521045 3.62890625 75.31640625 C6.26890625 75.31640625 8.90890625 75.31640625 11.62890625 75.31640625 C12.40382642 63.83295804 12.40382642 63.83295804 8.62890625 53.31640625 C6.03461016 50.55716136 6.03461016 50.55716136 2.62890625 49.31640625 Z M-16.37109375 52.31640625 C-14.72109375 54.29640625 -13.07109375 56.27640625 -11.37109375 58.31640625 C-9.50055978 58.18606131 -9.50055978 58.18606131 -7.37109375 57.31640625 C-6.05109375 55.66640625 -4.73109375 54.01640625 -3.37109375 52.31640625 C-7.66109375 52.31640625 -11.95109375 52.31640625 -16.37109375 52.31640625 Z M-19.37109375 56.31640625 C-23.23440329 64.28448218 -20.75492606 71.27097221 -18.37109375 79.31640625 C-12.76109375 79.31640625 -7.15109375 79.31640625 -1.37109375 79.31640625 C-1.04109375 77.00640625 -0.71109375 74.69640625 -0.37109375 72.31640625 C-6.31109375 72.64640625 -12.25109375 72.97640625 -18.37109375 73.31640625 C-18.37109375 68.69640625 -18.37109375 64.07640625 -18.37109375 59.31640625 C-17.71109375 58.98640625 -17.05109375 58.65640625 -16.37109375 58.31640625 C-17.36109375 57.65640625 -18.35109375 56.99640625 -19.37109375 56.31640625 Z M-1.37109375 56.31640625 C-2.36109375 57.80140625 -2.36109375 57.80140625 -3.37109375 59.31640625 C-2.38109375 59.31640625 -1.39109375 59.31640625 -0.37109375 59.31640625 C-0.37109375 63.60640625 -0.37109375 67.89640625 -0.37109375 72.31640625 C1.7773655 68.01948776 1.95907496 66.02131036 1.62890625 61.31640625 C0.73142355 58.48262493 0.73142355 58.48262493 -0.37109375 56.31640625 C-0.70109375 56.31640625 -1.03109375 56.31640625 -1.37109375 56.31640625 Z M-14.37109375 63.31640625 C-14.37109375 65.29640625 -14.37109375 67.27640625 -14.37109375 69.31640625 C-11.40109375 69.31640625 -8.43109375 69.31640625 -5.37109375 69.31640625 C-5.37109375 67.33640625 -5.37109375 65.35640625 -5.37109375 63.31640625 C-8.34109375 63.31640625 -11.31109375 63.31640625 -14.37109375 63.31640625 Z M-27.37109375 80.31640625 C-27.37109375 81.96640625 -27.37109375 83.61640625 -27.37109375 85.31640625 C-26.38109375 85.31640625 -25.39109375 85.31640625 -24.37109375 85.31640625 C-23.71109375 83.66640625 -23.05109375 82.01640625 -22.37109375 80.31640625 C-24.02109375 80.31640625 -25.67109375 80.31640625 -27.37109375 80.31640625 Z M2.62890625 80.31640625 C3.98423885 82.85313913 3.98423885 82.85313913 5.62890625 85.31640625 C6.28890625 85.31640625 6.94890625 85.31640625 7.62890625 85.31640625 C7.95890625 83.66640625 8.28890625 82.01640625 8.62890625 80.31640625 C6.64890625 80.31640625 4.66890625 80.31640625 2.62890625 80.31640625 Z M-19.37109375 83.31640625 C-23.7871189 91.03905615 -23.7871189 91.03905615 -24.37109375 99.31640625 C-14.80109375 99.31640625 -5.23109375 99.31640625 4.62890625 99.31640625 C4.22930654 90.29129445 4.22930654 90.29129445 -0.37109375 83.31640625 C-6.64109375 83.31640625 -12.91109375 83.31640625 -19.37109375 83.31640625 Z " fill="#CE355C" transform="translate(112.37109375,24.68359375)"/>
<path d="M0 0 C1.85625 0.2784375 1.85625 0.2784375 3.75 0.5625 C6.76279577 0.94711223 9.10010827 1.0874594 12 0 C12 1.32 12 2.64 12 4 C8.51131349 6.32579101 7.10281481 6.41865457 3 6 C0.625 4.5 0.625 4.5 -1 3 C-0.67 2.01 -0.34 1.02 0 0 Z " fill="#D24569" transform="translate(43,55)"/>
<path d="M0 0 C1.60875 0.2784375 1.60875 0.2784375 3.25 0.5625 C6.40391546 0.9304568 8.09818492 1.04465343 11 0 C11 1.32 11 2.64 11 4 C9 6 9 6 5.5625 6.3125 C2 6 2 6 0.0625 4.5 C-0.4634375 3.7575 -0.4634375 3.7575 -1 3 C-0.67 2.01 -0.34 1.02 0 0 Z " fill="#D03C61" transform="translate(97,55)"/>
<path d="M0 0 C-1.2065625 0.6496875 -1.2065625 0.6496875 -2.4375 1.3125 C-6.28203946 5.34457797 -5.89780133 9.61134269 -6 15 C-6.33 15 -6.66 15 -7 15 C-7.1080023 12.89695523 -7.18558987 10.79233091 -7.25 8.6875 C-7.31960937 6.92986328 -7.31960937 6.92986328 -7.390625 5.13671875 C-7 2 -7 2 -5.171875 0.01953125 C-3 -1 -3 -1 0 0 Z " fill="#DB5A7B" transform="translate(54,109)"/>
<path d="M0 0 C1.98 0.495 1.98 0.495 4 1 C3.67 1.99 3.34 2.98 3 4 C1.68 3.67 0.36 3.34 -1 3 C-0.67 2.01 -0.34 1.02 0 0 Z " fill="#DE718C" transform="translate(101,89)"/>
</svg>
